<svg width="133" height="34" viewBox="0 0 133 34" fill="none" xmlns="http://www.w3.org/2000/svg">
<g clip-path="url(#clip0_1_226)">
<g opacity="0.6">
<path opacity="0.6" fill-rule="evenodd" clip-rule="evenodd" d="M19.3564 1.77015C19.7182 1.65473 20.1116 1.69283 20.4444 1.87554C21.1727 2.27527 21.7266 2.96913 22.1388 3.66339C22.5676 4.38563 22.927 5.2513 23.2066 6.17095C23.7635 8.00252 24.0523 10.2097 23.8484 12.2246C23.7714 12.9851 23.0921 13.5393 22.3311 13.4624C21.57 13.3855 21.0155 12.7066 21.0924 11.9461C21.2539 10.3498 21.0235 8.51276 20.5561 6.97572C20.4272 6.55143 20.2839 6.16255 20.1326 5.81747C19.6804 6.97212 19.2151 8.24447 19.0076 8.93451C18.7875 9.66659 18.0152 10.0817 17.2826 9.86171C16.55 9.64179 16.1346 8.86999 16.3547 8.13791C16.7583 6.79553 17.9765 3.63129 18.5308 2.48605C18.6962 2.14439 18.9946 1.88558 19.3564 1.77015Z" fill="#30424F"/>
<path opacity="0.6" fill-rule="evenodd" clip-rule="evenodd" d="M14.9827 8.10026C15.2582 7.22528 16.1914 6.73918 17.067 7.01455C17.9315 7.28641 18.7758 7.65062 19.5969 8.07321L19.6018 8.07576C23.4377 10.0659 26.2192 13.4252 26.9781 16.8908C26.9895 16.9342 27.0067 16.971 27.0242 16.9981C27.0408 17.0237 27.0527 17.0331 27.0529 17.0333L27.0629 17.0404L29.8923 19.072L29.8965 19.075C30.9034 19.8027 31.1626 20.9938 31.1138 21.8525C31.065 22.709 30.6709 23.8778 29.5601 24.4763L29.5526 24.4803C28.1046 25.251 26.3558 25.4899 23.6864 25.0172C23.6743 25.015 23.6621 25.0128 23.6501 25.0103C23.5875 24.9978 23.5218 24.9877 23.4083 24.9702L23.3996 24.9689C23.311 24.9552 23.1819 24.9354 23.0452 24.907C20.9938 24.582 19.6284 24.6182 18.7847 24.8451C18.032 25.0476 17.8379 25.3452 17.7475 25.6384C17.1174 27.7191 17.6937 28.9415 18.4761 30.6008C18.6009 30.8654 18.7308 31.1411 18.862 31.4331C19.2379 32.2699 18.8637 33.2528 18.0263 33.6285C17.1888 34.0041 16.2052 33.6302 15.8294 32.7933C15.7341 32.5813 15.6255 32.3568 15.5104 32.1189C14.6905 30.4244 13.5424 28.0514 14.5671 24.6722L14.5686 24.6674C15.0617 23.0593 16.3048 22.0721 17.9207 21.6374C19.4416 21.2284 21.368 21.2743 23.613 21.6337C23.6459 21.639 23.6786 21.6452 23.7111 21.6524C23.7472 21.6605 23.7982 21.6693 23.9082 21.6862C23.9163 21.6874 23.9247 21.6887 23.9336 21.6901C24.0226 21.7037 24.1504 21.7233 24.2824 21.7492C26.2403 22.094 27.1896 21.911 27.7841 21.6486L25.1276 19.7412C24.3957 19.2218 23.9315 18.4468 23.7418 17.6496C23.7391 17.6386 23.7366 17.6274 23.7342 17.6163C23.233 15.2988 21.2245 12.6614 18.0725 11.0251C17.3826 10.6703 16.7158 10.3865 16.0691 10.1831C15.1936 9.90782 14.7071 8.9753 14.9827 8.10026Z" fill="#30424F"/>
<path opacity="0.6" fill-rule="evenodd" clip-rule="evenodd" d="M11.0573 4.47741C11.021 4.97007 10.9825 5.45079 10.9458 5.89993C10.9327 6.06086 10.9199 6.21611 10.9076 6.36534C10.8195 7.43988 10.7569 8.20156 10.7569 8.51227C10.7569 9.13463 10.437 9.84955 9.70937 10.2136C8.89537 10.6209 7.77144 11.2478 6.76813 11.9898C6.75441 11.9999 6.74074 12.01 6.72715 12.0201C7.0092 12.0964 7.23092 12.1765 7.37572 12.2336C8.10904 12.509 8.44177 13.1687 8.49033 13.7031C8.53495 14.194 8.37149 14.7204 7.98146 15.1107C7.92949 15.1627 7.87421 15.2111 7.81582 15.2557C7.52441 15.4787 6.50183 16.3102 5.59322 17.6127C5.12445 18.2847 4.70188 19.0583 4.41781 19.9218C5.75648 19.698 7.14019 20.9971 6.51082 22.5126C5.98791 23.8794 4.60509 27.9821 4.92065 32.2056C4.989 33.1203 4.30235 33.9172 3.38697 33.9855C2.4716 34.0538 1.67413 33.3677 1.60578 32.4529C1.38461 29.4928 1.86263 26.6415 2.40668 24.5028C2.196 24.4792 1.98916 24.4206 1.79537 24.3275C1.22395 24.0531 0.762086 23.4641 0.738191 22.7084C0.591027 19.786 1.69088 17.3981 2.86629 15.7131C2.94427 15.6013 3.02285 15.4922 3.10172 15.3858C2.71356 15.3123 2.36591 15.1194 2.10879 14.8622C1.60459 14.3576 1.38172 13.5472 1.71713 12.7783C2.33205 11.353 3.6339 10.175 4.7908 9.31954C5.70013 8.64711 6.66326 8.07135 7.47364 7.63264C7.50379 7.19267 7.54737 6.66496 7.59306 6.11159C7.60619 5.95259 7.61949 5.79148 7.6327 5.62972C7.73517 4.37459 7.84513 2.95051 7.88704 1.72175C7.89841 1.31028 8.05747 0.899625 8.3646 0.580448C8.64336 0.290838 8.95174 0.171973 9.11884 0.121797C9.29491 0.0689378 9.44376 0.0542365 9.52101 0.0487173C9.59787 0.0432194 9.66414 0.0434293 9.67643 0.0434684L9.67806 0.0434721C9.86116 0.0434721 10.043 0.0737219 10.2163 0.132999C11.8624 0.696117 13.2652 1.87479 14.4734 3.18158C15.6923 4.49997 16.8404 6.0924 17.9293 7.64586C18.4559 8.39721 18.2733 9.4329 17.5216 9.95913C16.7697 10.4854 15.7333 10.303 15.2067 9.55167C14.1141 7.99292 13.0808 6.57042 12.0318 5.43579C11.6966 5.07315 11.3721 4.75393 11.0573 4.47741ZM6.15592 15.3236C6.18888 15.3371 6.22276 15.3496 6.25759 15.3612C6.22668 15.3509 6.19608 15.3397 6.16583 15.3276C6.16259 15.3263 6.15929 15.3249 6.15592 15.3236Z" fill="#30424F"/>
<path opacity="0.6" d="M48.1243 12.251C47.5412 12.8562 46.5692 12.8777 45.9429 12.3374C45.5973 12.0133 45.1221 11.7971 44.6253 11.7971C43.567 11.7971 42.7031 12.6832 42.7031 13.7854V16.9409H45.1221C45.9644 16.9409 46.6772 17.6325 46.6772 18.4754C46.6772 19.3399 45.9644 20.0315 45.1221 20.0315H42.7031V26.4936C42.7031 27.3365 41.9903 28.0497 41.1263 28.0497C40.284 28.0497 39.5712 27.3365 39.5712 26.4936V26.4504C39.5712 24.4188 39.5712 22.3872 39.5712 20.3773V13.7639C39.5712 10.9759 41.8607 8.70654 44.6253 8.70654C45.8996 8.70654 47.1092 9.182 48.0595 10.0465C48.6643 10.6517 48.6859 11.6242 48.1243 12.251Z" fill="#30424F"/>
<path opacity="0.6" d="M53.8045 28.0716C50.3055 28.0716 47.4329 25.2188 47.4329 21.696C47.4329 18.1948 50.3055 15.3203 53.8045 15.3203C57.3035 15.3203 60.176 18.1948 60.1977 21.7176C60.176 25.2404 57.3035 28.0716 53.8045 28.0716ZM53.8045 18.4541C52.0118 18.4541 50.543 19.9021 50.543 21.7176C50.543 23.5115 51.9902 24.981 53.8045 24.981C55.5971 24.981 57.0659 23.533 57.0659 21.7176C57.0443 19.9021 55.5971 18.4541 53.8045 18.4541Z" fill="#30424F"/>
<path opacity="0.6" d="M67.8222 28.0501C66.1375 28.0501 64.6041 27.4234 63.3946 26.2779C62.185 25.0892 61.4938 23.5115 61.429 21.8042C61.4075 20.1184 62.0122 18.4974 63.2217 17.2871C64.388 16.0769 65.9648 15.3853 67.6711 15.3204C69.3773 15.2988 70.9756 15.9256 72.1852 17.1142C72.7899 17.6762 72.8116 18.6703 72.2284 19.2539C71.6452 19.859 70.6733 19.8806 70.0685 19.297C69.4421 18.6919 68.5998 18.3461 67.7143 18.3461C66.8287 18.3461 66.0079 18.7351 65.3816 19.362C64.7984 19.9887 64.4313 20.8315 64.4745 21.7177C64.4745 22.5821 64.8632 23.4467 65.4896 24.0302C66.116 24.657 66.9583 25.0028 67.8222 24.9812C68.6646 24.9812 69.4421 24.657 70.0469 24.0951C70.6301 23.5115 71.6236 23.5547 72.1852 24.1815C72.7684 24.7867 72.7251 25.7592 72.0988 26.3427C70.9541 27.4017 69.4638 28.0285 67.887 28.0501H67.8222Z" fill="#30424F"/>
<path opacity="0.6" d="M80.2415 28.2012C76.9366 28.2012 74.2151 25.3268 74.2151 21.8256V16.9627C74.2151 16.1199 74.8416 15.4282 75.6406 15.4282C76.4615 15.4282 77.239 16.1199 77.239 16.9627V21.8256C77.239 23.6626 78.7723 25.1322 80.2415 25.1322C81.969 25.1322 83.2649 23.6626 83.2649 21.8256V17.1788C83.2649 16.3144 84.1503 15.6444 84.8416 15.6444C85.6195 15.6444 86.2891 16.3144 86.2891 17.1788V21.8256C86.2891 25.3268 83.5889 28.2012 80.2415 28.2012Z" fill="#30424F"/>
<path opacity="0.6" d="M92.6383 28.1794C91.0183 28.1794 89.3767 27.5094 88.5563 26.7313C87.9516 26.1694 87.8867 25.1969 88.4697 24.5917C89.0319 23.965 90.0038 23.9217 90.6085 24.4836C91.0616 24.9159 92.7682 25.4995 93.7402 24.8727C93.9992 24.7214 94.15 24.4404 94.15 24.1595C94.15 23.8137 93.8477 23.5544 93.5886 23.4463C93.3513 23.3166 92.9623 23.3166 92.4875 23.3166C91.8828 23.3166 91.1916 23.295 90.4786 23.0356C89.161 22.6034 88.0815 21.2418 87.9949 19.9018C87.865 18.3025 88.5563 17.3083 89.1393 16.7464C90.4137 15.5793 92.271 15.4064 93.6103 15.6225C94.6256 15.7955 95.3818 16.1629 96.0298 16.7464C96.6345 17.3083 96.6987 18.2809 96.1373 18.8861C95.8133 19.2319 95.3169 19.4264 94.8413 19.3615C94.6039 19.3399 94.3882 19.2534 94.1717 19.1238C93.8268 18.8644 93.567 18.6915 93.1139 18.6051C92.3576 18.4754 90.9325 18.5186 91.04 19.6209C91.0616 19.7505 91.299 20.0747 91.4939 20.1612C91.7529 20.2476 92.1202 20.2476 92.5308 20.2476C93.1997 20.2693 94.0209 20.2693 94.863 20.6583C96.2672 21.285 97.1742 22.6682 97.1742 24.1378C97.1742 25.4346 96.5046 26.6449 95.4244 27.4013C94.5606 27.9849 93.6103 28.1794 92.6383 28.1794Z" fill="#30424F"/>
<path opacity="0.6" d="M107.498 12.251C106.915 12.8562 105.943 12.8777 105.317 12.3374C104.971 12.0133 104.496 11.7971 103.999 11.7971C102.94 11.7971 102.077 12.6832 102.077 13.7854V16.9409H104.496C105.338 16.9409 106.051 17.6325 106.051 18.4754C106.051 19.3399 105.338 20.0315 104.496 20.0315H102.077V26.4936C102.077 27.3365 101.364 28.0497 100.5 28.0497C99.6579 28.0497 98.945 27.3365 98.945 26.4936V26.4504C98.945 24.4188 98.945 22.3872 98.945 20.3773V13.7639C98.945 10.9759 101.235 8.70654 103.999 8.70654C105.273 8.70654 106.483 9.182 107.433 10.0465C108.038 10.6517 108.059 11.6242 107.498 12.251Z" fill="#30424F"/>
<path opacity="0.6" d="M113.158 28.0716C109.659 28.0716 106.787 25.2188 106.787 21.696C106.787 18.1948 109.659 15.3203 113.158 15.3203C116.657 15.3203 119.53 18.1948 119.551 21.7176C119.53 25.2404 116.657 28.0716 113.158 28.0716ZM113.158 18.4541C111.365 18.4541 109.897 19.9021 109.897 21.7176C109.897 23.5115 111.343 24.981 113.158 24.981C114.972 24.981 116.419 23.533 116.419 21.7176C116.419 19.9021 114.972 18.4541 113.158 18.4541Z" fill="#30424F"/>
<path opacity="0.6" d="M132.208 25.5426C132.77 26.1261 132.748 27.0771 132.165 27.6606C131.884 27.9416 131.495 28.0713 131.128 28.0713C130.739 28.0713 130.372 27.92 130.069 27.6174L126.506 23.9216L123.007 27.5525C122.726 27.8551 122.338 28.0064 121.949 28.0064C121.603 28.0064 121.214 27.8768 120.912 27.5958C120.329 27.0122 120.307 26.0613 120.89 25.4777L124.476 21.7604L120.868 18.0215C120.307 17.4164 120.307 16.4654 120.912 15.9034C121.495 15.3199 122.445 15.3415 123.029 15.9251L126.528 19.5776L130.113 15.8602C130.675 15.2767 131.604 15.2551 132.23 15.8386C132.813 16.4005 132.835 17.3299 132.251 17.9566L128.623 21.7388L132.208 25.5426Z" fill="#30424F"/>
</g>
</g>
<defs>
<clipPath id="clip0_1_226">
<rect width="133" height="34" fill="white"/>
</clipPath>
</defs>
</svg>
