<svg width="184" height="31" viewBox="0 0 184 31" fill="none" xmlns="http://www.w3.org/2000/svg">
<g clip-path="url(#clip0_1_292)">
<g opacity="0.6">
<path opacity="0.4" d="M32.3033 11.7383L19.8761 20.563H14.3528L1.92563 11.7383L17.1145 1.65283L32.3033 11.7383Z" fill="#30424F"/>
<path opacity="0.6" fill-rule="evenodd" clip-rule="evenodd" d="M16.4123 0.60382C16.8374 0.321513 17.3913 0.321513 17.8164 0.60382L33.0053 10.6892C33.3574 10.9231 33.5689 11.3167 33.5689 11.7382V28.127C33.5689 28.7957 33.3022 29.437 32.8274 29.9099C32.3527 30.3827 31.7088 30.6484 31.0374 30.6484H3.19123C2.51985 30.6484 1.87596 30.3827 1.40121 29.9099C0.926465 29.437 0.65976 28.7957 0.65976 28.127V11.7382C0.65976 11.3167 0.871266 10.9231 1.22339 10.6892L16.4123 0.60382ZM3.19123 12.4129V28.127H31.0374V12.4129L17.1143 3.16791L3.19123 12.4129Z" fill="#30424F"/>
<path opacity="0.6" fill-rule="evenodd" clip-rule="evenodd" d="M15.387 19.8357C15.7903 20.4043 15.6544 21.191 15.0834 21.5927L3.04651 30.0612C2.47554 30.4628 1.68574 30.3275 1.28243 29.7588C0.879112 29.1901 1.01502 28.4034 1.58599 28.0018L13.623 19.5333C14.1939 19.1316 14.9837 19.267 15.387 19.8357Z" fill="#30424F"/>
<path opacity="0.6" fill-rule="evenodd" clip-rule="evenodd" d="M18.8426 19.8357C19.246 19.267 20.0358 19.1316 20.6067 19.5333L32.6439 28.0019C33.2148 28.4036 33.3508 29.1902 32.9475 29.759C32.5441 30.3276 31.7543 30.463 31.1833 30.0613L19.1462 21.5927C18.5752 21.191 18.4393 20.4044 18.8426 19.8357Z" fill="#30424F"/>
<path opacity="0.6" fill-rule="evenodd" clip-rule="evenodd" d="M0.894981 11.0064C1.3008 10.4395 2.09119 10.3077 2.66039 10.7118L14.7577 19.3024H19.4711L31.5685 10.7118C32.1377 10.3077 32.9281 10.4395 33.3339 11.0064C33.7397 11.5734 33.6073 12.3606 33.0381 12.7648L20.6109 21.5896C20.3964 21.7418 20.1395 21.8237 19.8761 21.8237H14.3527C14.0893 21.8237 13.8324 21.7418 13.6179 21.5896L1.1908 12.7648C0.621608 12.3606 0.489165 11.5734 0.894981 11.0064Z" fill="#30424F"/>
<path opacity="0.6" d="M47.1903 26.0024C46.851 26.0024 46.5653 25.8868 46.333 25.6555C46.1009 25.4243 45.9848 25.1397 45.9848 24.8017V8.87236C45.9848 8.39207 46.1544 7.98295 46.4938 7.64497C46.8331 7.2892 47.2439 7.11133 47.7261 7.11133H48.0743C48.6458 7.11133 49.137 7.37815 49.5478 7.91179L59.8617 22.7471V8.33871C59.8617 8.00074 59.9778 7.71612 60.2099 7.48488C60.4421 7.23584 60.7279 7.11133 61.0672 7.11133C61.4066 7.11133 61.6923 7.23584 61.9244 7.48488C62.1745 7.71612 62.2995 8.00074 62.2995 8.33871V24.268C62.2995 24.7483 62.1209 25.1575 61.7637 25.4954C61.4244 25.8334 61.0136 26.0024 60.5314 26.0024H60.2099C59.9242 26.0024 59.6563 25.9401 59.4063 25.8156C59.1562 25.6733 58.9509 25.4955 58.7901 25.2819L48.4227 10.3665V24.8017C48.4227 25.1397 48.2976 25.4243 48.0476 25.6555C47.8154 25.8868 47.5297 26.0024 47.1903 26.0024Z" fill="#30424F"/>
<path opacity="0.6" d="M72.6687 26.1358C71.2935 26.1358 70.088 25.8423 69.0521 25.2553C68.0162 24.6683 67.2126 23.8412 66.6411 22.7738C66.0874 21.6888 65.8106 20.4525 65.8106 19.065C65.8106 17.6775 66.0874 16.4501 66.6411 15.3828C67.2126 14.2977 68.0162 13.4617 69.0521 12.8747C70.088 12.2877 71.2935 11.9941 72.6687 11.9941C74.026 11.9941 75.2226 12.2877 76.2584 12.8747C77.2943 13.4617 78.098 14.2977 78.6695 15.3828C79.241 16.4501 79.5267 17.6775 79.5267 19.065C79.5267 20.4525 79.241 21.6888 78.6695 22.7738C78.098 23.8412 77.2943 24.6683 76.2584 25.2553C75.2226 25.8423 74.026 26.1358 72.6687 26.1358ZM72.6687 23.9211C73.4009 23.9211 74.0975 23.7522 74.7582 23.4142C75.4369 23.0762 75.9906 22.5426 76.4192 21.8133C76.8657 21.084 77.0889 20.159 77.0889 19.0383C77.0889 17.9355 76.8657 17.0193 76.4192 16.29C75.9906 15.5607 75.4369 15.036 74.7582 14.7158C74.0975 14.3778 73.4009 14.2088 72.6687 14.2088C71.9186 14.2088 71.2042 14.3778 70.5255 14.7158C69.8647 15.036 69.32 15.5607 68.8914 16.29C68.4628 17.0193 68.2485 17.9355 68.2485 19.0383C68.2485 20.159 68.4628 21.084 68.8914 21.8133C69.32 22.5426 69.8647 23.0762 70.5255 23.4142C71.2042 23.7522 71.9186 23.9211 72.6687 23.9211Z" fill="#30424F"/>
<path opacity="0.6" d="M86.8285 26.0022C86.4713 26.0022 86.1498 25.8955 85.8641 25.682C85.5783 25.4686 85.3819 25.2017 85.2748 24.8816L81.4706 13.7817C81.4171 13.6216 81.3903 13.4704 81.3903 13.3281C81.3903 12.9902 81.5063 12.7055 81.7385 12.4743C81.9707 12.2431 82.2564 12.1274 82.5958 12.1274C82.8458 12.1274 83.0691 12.1986 83.2655 12.3409C83.4798 12.4654 83.6227 12.6344 83.6941 12.8478L86.8285 23.1205L89.9361 13.088C90.0253 12.8033 90.1861 12.5721 90.4182 12.3942C90.6683 12.2163 90.9452 12.1274 91.2487 12.1274C91.5524 12.1274 91.8206 12.2163 92.0522 12.3942C92.3021 12.5721 92.4724 12.8033 92.5612 13.088L95.669 23.1205L98.8034 12.8478C98.8748 12.6344 99.0085 12.4654 99.2053 12.3409C99.4195 12.1986 99.652 12.1274 99.9019 12.1274C100.241 12.1274 100.527 12.2431 100.759 12.4743C100.991 12.7055 101.108 12.9902 101.108 13.3281C101.108 13.4704 101.08 13.6216 101.027 13.7817L97.2225 24.8816C97.1154 25.2017 96.9195 25.4686 96.633 25.682C96.3473 25.8955 96.026 26.0022 95.669 26.0022C95.312 26.0022 94.9907 25.8955 94.7042 25.682C94.4186 25.4686 94.2135 25.1928 94.0881 24.8549L91.2487 16.023L88.4091 24.8549C88.284 25.1928 88.0787 25.4686 87.7929 25.682C87.5072 25.8955 87.1857 26.0022 86.8285 26.0022Z" fill="#30424F"/>
<path opacity="0.6" fill-rule="evenodd" clip-rule="evenodd" d="M49.6883 7.80398C49.6901 7.80626 49.6917 7.80857 49.6934 7.81093L59.6829 22.1796V8.33879C59.6829 7.95666 59.8158 7.62721 60.0809 7.36189C60.3462 7.07854 60.6784 6.93408 61.0665 6.93408C61.4534 6.93408 61.7847 7.07772 62.0497 7.35949C62.3326 7.62334 62.4768 7.95338 62.4768 8.33879V24.2681C62.4768 24.7975 62.2779 25.2522 61.8873 25.6225C61.5147 25.9928 61.0591 26.1798 60.5307 26.1798H60.2092C59.8964 26.1798 59.6012 26.1114 59.3259 25.9743C59.323 25.9728 59.3201 25.9713 59.3172 25.9696C59.0476 25.8163 58.8233 25.6227 58.6469 25.3885L58.643 25.383L48.5999 10.9343V24.8018C48.5999 25.1882 48.4549 25.519 48.1704 25.7833C47.904 26.0475 47.5733 26.1798 47.1896 26.1798C46.8048 26.1798 46.4732 26.0467 46.2064 25.781C45.9396 25.5152 45.806 25.185 45.806 24.8018V8.87244C45.806 8.34614 45.9937 7.89238 46.3655 7.52127C46.7374 7.13222 47.1939 6.93408 47.7254 6.93408H48.0736C48.7109 6.93408 49.2508 7.23549 49.6883 7.80398ZM46.4931 7.64505C46.8324 7.28929 47.2432 7.1114 47.7254 7.1114H48.0736C48.6451 7.1114 49.1362 7.37823 49.547 7.91188L59.8609 22.7472V8.33879C59.8609 8.00081 59.9771 7.7162 60.2092 7.48496C60.4414 7.23592 60.7272 7.1114 61.0665 7.1114C61.4058 7.1114 61.6915 7.23592 61.9237 7.48496C62.1737 7.7162 62.2987 8.00081 62.2987 8.33879V24.2681C62.2987 24.7484 62.1201 25.1575 61.7629 25.4955C61.4236 25.8335 61.0129 26.0025 60.5307 26.0025H60.2092C59.9234 26.0025 59.6556 25.9402 59.4055 25.8157C59.1555 25.6734 58.9501 25.4955 58.7894 25.2821L48.4218 10.3666V24.8018C48.4218 25.1397 48.2969 25.4243 48.0468 25.6556C47.8147 25.8868 47.5289 26.0025 47.1896 26.0025C46.8503 26.0025 46.5645 25.8868 46.3323 25.6556C46.1002 25.4243 45.9841 25.1397 45.9841 24.8018V8.87244C45.9841 8.39216 46.1537 7.98302 46.4931 7.64505ZM66.4816 22.8542C65.9136 21.741 65.6318 20.4765 65.6318 19.065C65.6318 17.6537 65.9136 16.3977 66.4821 15.3015L66.4826 15.3005C67.0695 14.1864 67.8968 13.325 68.9633 12.7207C70.0299 12.1162 71.2667 11.8169 72.6679 11.8169C74.0518 11.8169 75.2794 12.1165 76.3457 12.7207C77.4119 13.3249 78.2392 14.186 78.826 15.2998C79.413 16.3962 79.704 17.653 79.704 19.065C79.704 20.4774 79.4129 21.7426 78.8263 22.8563L78.8258 22.8573C78.2387 23.9536 77.4114 24.8056 76.3457 25.4094C75.2794 26.0137 74.0518 26.3132 72.6679 26.3132C71.2667 26.3132 70.0299 26.0139 68.9633 25.4094C67.8976 24.8056 67.0702 23.9536 66.4832 22.8573L66.4816 22.8542ZM78.6687 15.3829C78.0972 14.2979 77.2936 13.4618 76.2577 12.8748C75.2219 12.2878 74.0252 11.9943 72.6679 11.9943C71.2927 11.9943 70.0872 12.2878 69.0514 12.8748C68.0155 13.4618 67.2118 14.2979 66.6403 15.3829C66.0867 16.4502 65.8098 17.6776 65.8098 19.065C65.8098 20.4525 66.0867 21.6888 66.6403 22.7739C67.2118 23.8412 68.0155 24.6684 69.0514 25.2554C70.0872 25.8424 71.2927 26.1359 72.6679 26.1359C74.0252 26.1359 75.2219 25.8424 76.2577 25.2554C77.2936 24.6684 78.0972 23.8412 78.6687 22.7739C79.2402 21.6888 79.526 20.4525 79.526 19.065C79.526 17.6776 79.2402 16.4502 78.6687 15.3829ZM74.6762 23.2565L74.6778 23.2557C75.3221 22.9348 75.8514 22.4271 76.2648 21.7237L76.2664 21.721C76.6913 21.0269 76.9101 20.1364 76.9101 19.0384C76.9101 17.9588 76.6916 17.0769 76.2664 16.3824L76.2647 16.3797C75.8518 15.677 75.3235 15.1791 74.6812 14.8761L74.6761 14.8736C74.0401 14.5484 73.3714 14.3862 72.6679 14.3862C71.9457 14.3862 71.2586 14.5487 70.6044 14.8745L70.6026 14.8753C69.9781 15.1779 69.4579 15.6758 69.0442 16.3797C68.6358 17.0747 68.4257 17.9577 68.4257 19.0384C68.4257 20.1375 68.6359 21.0291 69.0442 21.7237C69.4581 22.4279 69.9791 22.9356 70.6053 23.2561C71.2593 23.5816 71.9461 23.7439 72.6679 23.7439C73.3714 23.7439 74.0401 23.5818 74.6762 23.2565ZM70.5247 23.4143C69.864 23.0763 69.3192 22.5427 68.8906 21.8134C68.462 21.084 68.2476 20.159 68.2476 19.0384C68.2476 17.9355 68.462 17.0194 68.8906 16.2901C69.3192 15.5608 69.864 15.036 70.5247 14.7158C71.2034 14.3779 71.9178 14.2089 72.6679 14.2089C73.4002 14.2089 74.0966 14.3779 74.7575 14.7158C75.4362 15.036 75.9898 15.5608 76.4184 16.2901C76.8649 17.0194 77.0881 17.9355 77.0881 19.0384C77.0881 20.159 76.8649 21.084 76.4184 21.8134C75.9898 22.5427 75.4362 23.0763 74.7575 23.4143C74.0966 23.7522 73.4002 23.9213 72.6679 23.9213C71.9178 23.9213 71.2034 23.7522 70.5247 23.4143ZM101.026 13.782L97.2216 24.8818C97.1145 25.202 96.9186 25.4688 96.633 25.6822C96.3464 25.8957 96.0251 26.0025 95.6681 26.0025C95.3111 26.0025 94.9898 25.8957 94.7042 25.6822C94.4176 25.4688 94.2126 25.1931 94.0881 24.8551L91.248 16.0233L88.4083 24.8551C88.2833 25.1931 88.0779 25.4688 87.7922 25.6822C87.5064 25.8957 87.185 26.0025 86.8278 26.0025C86.4706 26.0025 86.1491 25.8957 85.8633 25.6822C85.5776 25.4688 85.3811 25.202 85.2739 24.8818L81.4699 13.782C81.4163 13.6219 81.3895 13.4707 81.3895 13.3284C81.3895 12.9904 81.5056 12.7058 81.7377 12.4745C81.9699 12.2433 82.2557 12.1277 82.595 12.1277C82.845 12.1277 83.0683 12.1988 83.2648 12.3411C83.4791 12.4657 83.622 12.6346 83.6934 12.8481L86.8278 23.1207L89.9353 13.0882C90.0246 12.8037 90.1854 12.5723 90.4175 12.3945C90.6675 12.2166 90.9443 12.1277 91.248 12.1277C91.5514 12.1277 91.8197 12.2166 92.0513 12.3945C92.3021 12.5723 92.4715 12.8037 92.5602 13.0882L95.6681 23.1207L98.8025 12.8481C98.8739 12.6346 99.0076 12.4657 99.2044 12.3411C99.4186 12.1988 99.6511 12.1277 99.901 12.1277C100.241 12.1277 100.526 12.2433 100.758 12.4745C100.99 12.7058 101.107 12.9904 101.107 13.3284C101.107 13.4707 101.08 13.6219 101.026 13.782ZM99.1074 12.1925C99.349 12.0321 99.6154 11.9503 99.901 11.9503C100.285 11.9503 100.617 12.0835 100.884 12.3491C101.151 12.6149 101.284 12.9452 101.284 13.3284C101.284 13.4929 101.253 13.6632 101.195 13.8381L101.195 13.8392L97.3909 24.9379C97.3909 24.9382 97.3909 24.9384 97.3909 24.9388C97.271 25.2947 97.0522 25.5904 96.7392 25.8241C96.4233 26.0606 96.0636 26.1798 95.6681 26.1798C95.2726 26.1798 94.9138 26.0606 94.5971 25.8241C94.2831 25.5899 94.057 25.2861 93.9206 24.9165C93.9197 24.914 93.9187 24.9116 93.9178 24.9092L91.248 16.6047L88.5779 24.9092C88.5771 24.9116 88.5762 24.914 88.5753 24.9165C88.4387 25.2861 88.2125 25.5899 87.899 25.8241C87.5825 26.0606 87.2234 26.1798 86.8278 26.1798C86.432 26.1798 86.0731 26.0606 85.7565 25.8241C85.4437 25.5904 85.2247 25.2947 85.1053 24.9388C85.1052 24.9384 85.1051 24.9382 85.105 24.9379L81.301 13.8381C81.2424 13.6632 81.2115 13.4929 81.2115 13.3284C81.2115 12.9452 81.345 12.6149 81.6119 12.3491C81.8786 12.0835 82.2102 11.9503 82.595 11.9503C82.8785 11.9503 83.1362 12.0309 83.3622 12.1925C83.6059 12.3361 83.7767 12.5362 83.8623 12.792L83.8638 12.7965L86.8291 22.5151L89.7652 13.036L89.7654 13.0353C89.8653 12.7168 90.047 12.4545 90.3089 12.254L90.314 12.2502C90.5938 12.0511 90.9068 11.9503 91.248 11.9503C91.5881 11.9503 91.8938 12.0506 92.1575 12.2519C92.4367 12.4514 92.6298 12.7138 92.7305 13.0353V13.036L95.6672 22.5151L98.6332 12.792C98.7183 12.5392 98.8785 12.3381 99.1074 12.1925Z" fill="#30424F"/>
<path opacity="0.6" d="M106.633 26.0024C106.293 26.0024 106.008 25.8868 105.775 25.6555C105.544 25.4243 105.427 25.1397 105.427 24.8017V8.33871C105.427 8.00074 105.544 7.71612 105.775 7.48488C106.008 7.23584 106.293 7.11133 106.633 7.11133C106.973 7.11133 107.258 7.23584 107.49 7.48488C107.74 7.71612 107.865 8.00074 107.865 8.33871V24.8017C107.865 25.1397 107.74 25.4243 107.49 25.6555C107.258 25.8868 106.973 26.0024 106.633 26.0024Z" fill="#30424F"/>
<path opacity="0.6" d="M113.528 26.0024C113.189 26.0024 112.903 25.8868 112.671 25.6555C112.439 25.4243 112.322 25.1397 112.322 24.8017V13.3549C112.322 13.017 112.439 12.7324 112.671 12.5012C112.903 12.2521 113.189 12.1276 113.528 12.1276C113.868 12.1276 114.153 12.2521 114.386 12.5012C114.636 12.7324 114.76 13.017 114.76 13.3549V14.449C115.439 13.7019 116.172 13.1059 116.957 12.6613C117.744 12.2165 118.672 11.9941 119.744 11.9941C120.726 11.9941 121.574 12.2255 122.289 12.6879C123.021 13.1504 123.574 13.7819 123.949 14.5824C124.342 15.3828 124.539 16.2634 124.539 17.2239V24.8017C124.539 25.1397 124.413 25.4243 124.163 25.6555C123.932 25.8868 123.645 26.0024 123.307 26.0024C122.967 26.0024 122.681 25.8868 122.449 25.6555C122.217 25.4243 122.101 25.1397 122.101 24.8017V17.4907C122.101 15.3205 121.119 14.2355 119.154 14.2355C118.261 14.2355 117.457 14.4668 116.743 14.9292C116.046 15.3917 115.385 16.0143 114.76 16.797V24.8017C114.76 25.1397 114.636 25.4243 114.386 25.6555C114.153 25.8868 113.868 26.0024 113.528 26.0024Z" fill="#30424F"/>
<path opacity="0.6" fill-rule="evenodd" clip-rule="evenodd" d="M106.633 26.1798C106.249 26.1798 105.916 26.0467 105.65 25.781C105.384 25.5152 105.25 25.185 105.25 24.8018V8.33879C105.25 7.95666 105.383 7.62722 105.647 7.36189C105.913 7.07854 106.245 6.93408 106.633 6.93408C107.02 6.93408 107.352 7.07772 107.616 7.35949C107.899 7.62334 108.044 7.95338 108.044 8.33879V24.8018C108.044 25.1882 107.898 25.519 107.613 25.7833C107.347 26.0475 107.017 26.1798 106.633 26.1798ZM107.49 25.6556C107.741 25.4243 107.865 25.1397 107.865 24.8018V8.33879C107.865 8.00081 107.741 7.7162 107.49 7.48496C107.258 7.23592 106.973 7.1114 106.633 7.1114C106.293 7.1114 106.008 7.23592 105.776 7.48496C105.544 7.7162 105.427 8.00081 105.427 8.33879V24.8018C105.427 25.1397 105.544 25.4243 105.776 25.6556C106.008 25.8868 106.293 26.0025 106.633 26.0025C106.973 26.0025 107.258 25.8868 107.49 25.6556ZM113.528 26.1798C113.144 26.1798 112.812 26.0467 112.545 25.781C112.278 25.5152 112.145 25.185 112.145 24.8018V13.3551C112.145 12.973 112.278 12.6435 112.543 12.3781C112.808 12.0949 113.141 11.9503 113.528 11.9503C113.915 11.9503 114.247 12.094 114.511 12.3758C114.795 12.6396 114.939 12.9697 114.939 13.3551V14.0028C115.541 13.3938 116.185 12.8948 116.869 12.5072C117.687 12.0447 118.647 11.8169 119.744 11.8169C120.754 11.8169 121.638 12.0552 122.385 12.5388C123.145 13.0195 123.721 13.6766 124.11 14.506C124.515 15.3322 124.717 16.2392 124.717 17.224V24.8018C124.717 25.1882 124.572 25.519 124.287 25.7833C124.021 26.0475 123.69 26.1798 123.307 26.1798C122.922 26.1798 122.59 26.0467 122.323 25.781C122.057 25.5152 121.923 25.185 121.923 24.8018V17.4908C121.923 16.4288 121.683 15.6654 121.232 15.1681C120.785 14.6743 120.103 14.4129 119.154 14.4129C118.295 14.4129 117.525 14.6349 116.841 15.0774C116.177 15.5184 115.543 16.1113 114.939 16.8593V24.8018C114.939 25.1882 114.794 25.519 114.509 25.7833C114.243 26.0475 113.912 26.1798 113.528 26.1798ZM114.386 25.6556C114.636 25.4243 114.761 25.1397 114.761 24.8018V16.7971C115.385 16.0143 116.046 15.3918 116.743 14.9293C117.458 14.4668 118.261 14.2356 119.154 14.2356C121.119 14.2356 122.101 15.3207 122.101 17.4908V24.8018C122.101 25.1397 122.217 25.4243 122.449 25.6556C122.681 25.8868 122.967 26.0025 123.307 26.0025C123.646 26.0025 123.932 25.8868 124.163 25.6556C124.414 25.4243 124.539 25.1397 124.539 24.8018V17.224C124.539 16.2634 124.342 15.383 123.949 14.5824C123.575 13.782 123.021 13.1505 122.289 12.688C121.574 12.2255 120.726 11.9943 119.744 11.9943C118.672 11.9943 117.744 12.2166 116.957 12.6613C116.239 13.0674 115.567 13.5995 114.939 14.2578C114.879 14.3204 114.82 14.3841 114.761 14.449V13.3551C114.761 13.0171 114.636 12.7325 114.386 12.5012C114.153 12.2522 113.868 12.1277 113.528 12.1277C113.189 12.1277 112.904 12.2522 112.671 12.5012C112.439 12.7325 112.323 13.0171 112.323 13.3551V24.8018C112.323 25.1397 112.439 25.4243 112.671 25.6556C112.904 25.8868 113.189 26.0025 113.528 26.0025C113.868 26.0025 114.153 25.8868 114.386 25.6556Z" fill="#30424F"/>
<path opacity="0.6" d="M132.818 26.0023C132.479 26.0023 132.193 25.8866 131.961 25.6554C131.728 25.4241 131.612 25.1395 131.612 24.8016V9.51262H126.147C125.826 9.51262 125.558 9.40586 125.343 9.19241C125.129 8.97897 125.022 8.71215 125.022 8.39197C125.022 8.07177 125.129 7.80495 125.343 7.59149C125.558 7.36025 125.826 7.24463 126.147 7.24463H139.488C139.81 7.24463 140.078 7.36025 140.292 7.59149C140.525 7.80495 140.64 8.07177 140.64 8.39197C140.64 8.71215 140.525 8.97897 140.292 9.19241C140.078 9.40586 139.81 9.51262 139.488 9.51262H134.05V24.8016C134.05 25.1395 133.925 25.4241 133.676 25.6554C133.443 25.8866 133.157 26.0023 132.818 26.0023Z" fill="#30424F"/>
<path opacity="0.6" d="M147.497 26.1357C145.318 26.1357 143.612 25.522 142.379 24.2947C141.166 23.0495 140.558 21.3063 140.558 19.065C140.558 17.802 140.79 16.6368 141.254 15.5695C141.718 14.5022 142.433 13.6395 143.397 12.9814C144.362 12.3232 145.55 11.9941 146.961 11.9941C148.282 11.9941 149.425 12.3054 150.389 12.928C151.354 13.5328 152.087 14.3511 152.586 15.3828C153.086 16.3967 153.336 17.5085 153.336 18.718C153.336 19.056 153.221 19.3407 152.988 19.5719C152.774 19.8031 152.479 19.9187 152.104 19.9187H143.023C143.166 21.1639 143.63 22.1334 144.415 22.8271C145.202 23.5209 146.3 23.8678 147.711 23.8678C148.461 23.8678 149.112 23.7966 149.666 23.6542C150.238 23.512 150.791 23.3074 151.328 23.0406C151.47 22.9694 151.631 22.9339 151.809 22.9339C152.096 22.9339 152.346 23.0317 152.56 23.2274C152.774 23.423 152.881 23.6721 152.881 23.9745C152.881 24.3658 152.649 24.6949 152.184 24.9617C151.488 25.353 150.8 25.6465 150.122 25.8422C149.443 26.0379 148.568 26.1357 147.497 26.1357ZM150.926 17.9443C150.872 17.0727 150.64 16.3433 150.229 15.7564C149.836 15.1694 149.345 14.7424 148.755 14.4756C148.166 14.1909 147.568 14.0486 146.961 14.0486C146.353 14.0486 145.755 14.1909 145.166 14.4756C144.576 14.7424 144.085 15.1694 143.692 15.7564C143.299 16.3433 143.076 17.0727 143.023 17.9443H150.926Z" fill="#30424F"/>
<path opacity="0.6" d="M162.884 26.1357C161.599 26.1357 160.41 25.8511 159.321 25.2819C158.232 24.7127 157.357 23.8944 156.696 22.8271C156.053 21.7599 155.732 20.5057 155.732 19.065C155.732 17.6241 156.053 16.3701 156.696 15.3028C157.357 14.2354 158.232 13.4172 159.321 12.8479C160.41 12.2787 161.599 11.9941 162.884 11.9941C163.831 11.9941 164.643 12.1187 165.323 12.3677C166.018 12.5989 166.662 12.9013 167.251 13.2749C167.608 13.5061 167.787 13.8174 167.787 14.2087C167.787 14.4756 167.68 14.7246 167.466 14.9558C167.269 15.1694 167.036 15.276 166.769 15.276C166.572 15.276 166.376 15.2227 166.179 15.1159C165.59 14.8136 165.081 14.6001 164.653 14.4756C164.242 14.3333 163.723 14.2622 163.099 14.2622C161.563 14.2622 160.357 14.7068 159.482 15.5963C158.607 16.4679 158.17 17.6241 158.17 19.065C158.17 20.5057 158.607 21.6709 159.482 22.5603C160.357 23.432 161.563 23.8678 163.099 23.8678C163.723 23.8678 164.242 23.8055 164.653 23.681C165.081 23.5386 165.59 23.3163 166.179 23.0139C166.376 22.9071 166.572 22.8538 166.769 22.8538C167.036 22.8538 167.269 22.9694 167.466 23.2006C167.68 23.4142 167.787 23.6542 167.787 23.9211C167.787 24.3124 167.608 24.6237 167.251 24.8549C166.662 25.2285 166.018 25.5399 165.323 25.7889C164.643 26.0201 163.831 26.1357 162.884 26.1357Z" fill="#30424F"/>
<path opacity="0.6" d="M172.052 26.0022C171.712 26.0022 171.427 25.8866 171.194 25.6554C170.963 25.4241 170.846 25.1395 170.846 24.8015V7.48471C170.846 7.14673 170.963 6.86213 171.194 6.63087C171.427 6.38184 171.712 6.25732 172.052 6.25732C172.392 6.25732 172.677 6.38184 172.909 6.63087C173.159 6.86213 173.284 7.14673 173.284 7.48471V14.4488C173.962 13.7017 174.695 13.1057 175.481 12.6611C176.267 12.2164 177.196 11.994 178.267 11.994C179.249 11.994 180.098 12.2253 180.812 12.6878C181.544 13.1502 182.098 13.7817 182.473 14.5822C182.866 15.3827 183.063 16.2632 183.063 17.2237V24.8015C183.063 25.1395 182.937 25.4241 182.687 25.6554C182.455 25.8866 182.169 26.0022 181.83 26.0022C181.491 26.0022 181.205 25.8866 180.973 25.6554C180.74 25.4241 180.624 25.1395 180.624 24.8015V17.4906C180.624 15.3204 179.642 14.2353 177.677 14.2353C176.785 14.2353 175.981 14.4666 175.267 14.9291C174.57 15.3915 173.909 16.0142 173.284 16.7968V24.8015C173.284 25.1395 173.159 25.4241 172.909 25.6554C172.677 25.8866 172.392 26.0022 172.052 26.0022Z" fill="#30424F"/>
<path opacity="0.6" fill-rule="evenodd" clip-rule="evenodd" d="M142.251 24.4182C140.996 23.1311 140.379 21.3383 140.379 19.0649C140.379 17.7798 140.615 16.5904 141.09 15.499C141.568 14.4011 142.304 13.5121 143.297 12.835C144.296 12.1528 145.52 11.8168 146.96 11.8168C148.31 11.8168 149.488 12.1351 150.485 12.7785C151.477 13.4011 152.231 14.2444 152.746 15.3053C153.258 16.3451 153.514 17.4836 153.514 18.718C153.514 19.1001 153.381 19.4295 153.115 19.6947C152.862 19.9673 152.517 20.0961 152.103 20.0961H143.224C143.388 21.2106 143.828 22.0715 144.533 22.6944C145.277 23.3508 146.328 23.6904 147.71 23.6904C148.45 23.6904 149.086 23.6202 149.621 23.4825L149.622 23.4823C150.182 23.3431 150.723 23.1431 151.247 22.882C151.417 22.7971 151.606 22.7565 151.809 22.7565C152.14 22.7565 152.433 22.8716 152.679 23.0966C152.932 23.3275 153.059 23.6249 153.059 23.9744C153.059 24.4515 152.769 24.8299 152.272 25.1153L152.271 25.1161C151.565 25.5133 150.864 25.8126 150.171 26.0125C149.469 26.2146 148.576 26.313 147.496 26.313C145.282 26.313 143.526 25.6886 142.253 24.42L142.251 24.4182ZM143.045 20.0961C143.037 20.0376 143.028 19.9784 143.022 19.9187H152.103C152.478 19.9187 152.773 19.8031 152.987 19.5719C153.22 19.3407 153.336 19.056 153.336 18.718C153.336 17.5085 153.086 16.3967 152.585 15.3828C152.086 14.351 151.353 13.5328 150.389 12.928C149.424 12.3054 148.281 11.9941 146.96 11.9941C145.549 11.9941 144.361 12.3232 143.397 12.9814C142.432 13.6395 141.718 14.5022 141.253 15.5695C140.789 16.6368 140.558 17.802 140.558 19.0649C140.558 21.3062 141.165 23.0495 142.378 24.2946C143.612 25.522 145.317 26.1357 147.496 26.1357C148.568 26.1357 149.443 26.0379 150.121 25.8422C150.799 25.6465 151.487 25.353 152.184 24.9617C152.649 24.6948 152.88 24.3658 152.88 23.9744C152.88 23.672 152.773 23.423 152.559 23.2273C152.345 23.0317 152.095 22.9338 151.809 22.9338C151.63 22.9338 151.47 22.9694 151.327 23.0406C150.791 23.3074 150.237 23.512 149.665 23.6542C149.112 23.7966 148.461 23.8678 147.71 23.8678C146.299 23.8678 145.201 23.5208 144.415 22.8271C143.666 22.1667 143.21 21.2563 143.045 20.0961ZM150.08 15.8546C149.704 15.2925 149.238 14.8889 148.681 14.637L148.678 14.6351C148.11 14.3613 147.538 14.2259 146.96 14.2259C146.382 14.2259 145.809 14.3612 145.243 14.6351L145.238 14.6371C144.683 14.8889 144.216 15.2925 143.839 15.8546C143.496 16.3684 143.285 17.0035 143.214 17.767H150.733C150.66 17.005 150.442 16.371 150.082 15.8577L150.08 15.8546ZM150.911 17.767C150.917 17.8254 150.921 17.8845 150.925 17.9442H143.022C143.026 17.8845 143.03 17.8254 143.035 17.767C143.107 16.9733 143.326 16.303 143.691 15.7563C144.085 15.1693 144.575 14.7424 145.165 14.4756C145.755 14.1909 146.352 14.0486 146.96 14.0486C147.567 14.0486 148.166 14.1909 148.754 14.4756C149.344 14.7424 149.836 15.1693 150.228 15.7563C150.611 16.303 150.839 16.9733 150.911 17.767ZM156.544 22.9202L156.543 22.9183C155.881 21.8194 155.553 20.5327 155.553 19.0649C155.553 17.5971 155.881 16.3104 156.543 15.2115L156.544 15.2096C157.221 14.1159 158.119 13.2752 159.238 12.6909C160.354 12.1077 161.57 11.8168 162.884 11.8168C163.844 11.8168 164.677 11.9428 165.38 12.2003C166.089 12.4358 166.744 12.744 167.346 13.1253L167.348 13.1262C167.75 13.3868 167.965 13.7515 167.965 14.2087C167.965 14.528 167.835 14.8183 167.596 15.0761C167.369 15.3224 167.09 15.4534 166.768 15.4534C166.538 15.4534 166.314 15.3909 166.095 15.2726C165.512 14.9737 165.015 14.7659 164.602 14.6458L164.598 14.6445L164.593 14.6431C164.208 14.5094 163.712 14.4394 163.098 14.4394C161.598 14.4394 160.443 14.8724 159.609 15.7203L159.608 15.7216C158.771 16.5543 158.347 17.6626 158.347 19.0649C158.347 20.4668 158.771 21.5844 159.608 22.4354C160.442 23.2658 161.598 23.6904 163.098 23.6904C163.712 23.6904 164.209 23.6292 164.598 23.512C165.014 23.3737 165.512 23.1561 166.095 22.8572C166.314 22.7389 166.538 22.6764 166.768 22.6764C167.093 22.6764 167.371 22.819 167.596 23.0805C167.835 23.3212 167.965 23.6032 167.965 23.9211C167.965 24.3783 167.75 24.743 167.348 25.0036L167.346 25.0046C166.745 25.3856 166.09 25.7025 165.381 25.9557L165.379 25.9566C164.677 26.1959 163.844 26.313 162.884 26.313C161.57 26.313 160.354 26.0221 159.238 25.4389C158.119 24.8546 157.221 24.0139 156.544 22.9202ZM167.465 23.2006C167.268 22.9694 167.036 22.8538 166.768 22.8538C166.571 22.8538 166.375 22.9071 166.179 23.0139C165.589 23.3163 165.08 23.5386 164.652 23.6809C164.241 23.8055 163.723 23.8678 163.098 23.8678C161.562 23.8678 160.356 23.4319 159.481 22.5603C158.606 21.6709 158.169 20.5057 158.169 19.0649C158.169 17.6241 158.606 16.4678 159.481 15.5962C160.356 14.7068 161.562 14.2621 163.098 14.2621C163.723 14.2621 164.241 14.3333 164.652 14.4756C165.08 14.6 165.589 14.8136 166.179 15.1159C166.375 15.2227 166.571 15.276 166.768 15.276C167.036 15.276 167.268 15.1693 167.465 14.9558C167.679 14.7246 167.786 14.4756 167.786 14.2087C167.786 13.8174 167.608 13.5061 167.251 13.2749C166.661 12.9013 166.018 12.5989 165.322 12.3677C164.642 12.1186 163.831 11.9941 162.884 11.9941C161.598 11.9941 160.41 12.2787 159.32 12.8479C158.231 13.4171 157.356 14.2354 156.696 15.3027C156.052 16.37 155.731 17.6241 155.731 19.0649C155.731 20.5057 156.052 21.7599 156.696 22.8271C157.356 23.8944 158.231 24.7127 159.32 25.2819C160.41 25.8511 161.598 26.1357 162.884 26.1357C163.831 26.1357 164.642 26.0201 165.322 25.7888C166.018 25.5398 166.661 25.2285 167.251 24.8549C167.608 24.6237 167.786 24.3124 167.786 23.9211C167.786 23.6542 167.679 23.4142 167.465 23.2006ZM132.817 26.1796C132.432 26.1796 132.101 26.0465 131.834 25.7808C131.567 25.5151 131.434 25.1848 131.434 24.8016V9.69H126.147C125.781 9.69 125.467 9.56673 125.217 9.31782C124.967 9.06896 124.844 8.75604 124.844 8.39199C124.844 8.02917 124.966 7.71712 125.214 7.46865C125.463 7.20204 125.777 7.06733 126.147 7.06733H139.488C139.856 7.06733 140.17 7.20117 140.418 7.46605C140.683 7.71298 140.818 8.02568 140.818 8.39199C140.818 8.75949 140.682 9.07303 140.415 9.32037C140.165 9.56755 139.852 9.69 139.488 9.69H134.228V24.8016C134.228 25.1881 134.083 25.5189 133.798 25.7831C133.532 26.0473 133.2 26.1796 132.817 26.1796ZM133.675 25.6555C133.925 25.4241 134.05 25.1396 134.05 24.8016V9.51266H139.488C139.809 9.51266 140.077 9.40589 140.291 9.19245C140.524 8.979 140.64 8.71218 140.64 8.39199C140.64 8.0718 140.524 7.80498 140.291 7.59152C140.077 7.36028 139.809 7.24466 139.488 7.24466H126.147C125.825 7.24466 125.558 7.36028 125.343 7.59152C125.128 7.80498 125.021 8.0718 125.021 8.39199C125.021 8.71218 125.128 8.979 125.343 9.19245C125.558 9.40589 125.825 9.51266 126.147 9.51266H131.611V24.8016C131.611 25.1396 131.728 25.4241 131.96 25.6555C132.193 25.8867 132.478 26.0023 132.817 26.0023C133.157 26.0023 133.442 25.8867 133.675 25.6555ZM172.051 26.1796C171.667 26.1796 171.334 26.0465 171.068 25.7808C170.801 25.5151 170.668 25.1848 170.668 24.8016V7.4848C170.668 7.10265 170.801 6.77319 171.066 6.50786C171.331 6.22453 171.663 6.08008 172.051 6.08008C172.438 6.08008 172.77 6.22373 173.034 6.50549C173.317 6.76934 173.462 7.09938 173.462 7.4848V14.0026C174.063 13.3937 174.707 12.8947 175.392 12.507C176.21 12.0445 177.169 11.8168 178.266 11.8168C179.277 11.8168 180.16 12.055 180.908 12.5386C181.668 13.0193 182.243 13.6763 182.632 14.5057C183.038 15.3319 183.239 16.2389 183.239 17.2238V24.8016C183.239 25.1881 183.095 25.519 182.81 25.7832C182.544 26.0473 182.213 26.1796 181.83 26.1796C181.444 26.1796 181.113 26.0465 180.846 25.7808C180.579 25.5151 180.445 25.1848 180.445 24.8016V17.4906C180.445 16.4287 180.205 15.6653 179.754 15.168C179.308 14.6742 178.626 14.4128 177.677 14.4128C176.817 14.4128 176.048 14.6348 175.364 15.0773C174.699 15.5183 174.065 16.1111 173.462 16.8591V24.8016C173.462 25.1881 173.316 25.5189 173.032 25.7831C172.766 26.0473 172.435 26.1796 172.051 26.1796ZM172.909 25.6555C173.159 25.4241 173.283 25.1396 173.283 24.8016V16.7969C173.908 16.0143 174.569 15.3916 175.266 14.9292C175.98 14.4666 176.784 14.2354 177.677 14.2354C179.642 14.2354 180.624 15.3205 180.624 17.4906V24.8016C180.624 25.1396 180.739 25.4241 180.972 25.6555C181.204 25.8867 181.49 26.0023 181.83 26.0023C182.168 26.0023 182.454 25.8867 182.686 25.6555C182.936 25.4241 183.062 25.1396 183.062 24.8016V17.2238C183.062 16.2633 182.865 15.3828 182.472 14.5823C182.097 13.7818 181.543 13.1503 180.812 12.6879C180.097 12.2253 179.248 11.9941 178.266 11.9941C177.195 11.9941 176.266 12.2164 175.48 12.6612C174.762 13.0673 174.09 13.5994 173.462 14.2577C173.401 14.3202 173.343 14.3839 173.283 14.4489V7.4848C173.283 7.14682 173.159 6.86221 172.909 6.63096C172.676 6.38193 172.391 6.25741 172.051 6.25741C171.711 6.25741 171.426 6.38193 171.194 6.63096C170.962 6.86221 170.845 7.14682 170.845 7.4848V24.8016C170.845 25.1396 170.962 25.4241 171.194 25.6555C171.426 25.8867 171.711 26.0023 172.051 26.0023C172.391 26.0023 172.676 25.8867 172.909 25.6555Z" fill="#30424F"/>
</g>
</g>
<defs>
<clipPath id="clip0_1_292">
<rect width="184" height="31" fill="white"/>
</clipPath>
</defs>
</svg>
