<svg width="134" height="42" viewBox="0 0 134 42" fill="none" xmlns="http://www.w3.org/2000/svg">
<g opacity="0.6">
<path opacity="0.6" d="M36.2569 30.5621V11.688H48.7145V14.4652H39.7461V19.642H47.8968V22.3384H39.7461V27.7849H48.7145V30.5621H36.2569Z" fill="#30424F"/>
<path opacity="0.6" d="M50.8139 30.5625V17.1888H53.8942L54.1941 18.9954C54.6302 18.3482 55.2027 17.8359 55.9115 17.4584C56.6384 17.063 57.4743 16.8652 58.4193 16.8652C60.5092 16.8652 61.9904 17.6651 62.8627 19.265C63.3533 18.5279 64.0075 17.9438 64.8253 17.5124C65.6613 17.0809 66.57 16.8652 67.5513 16.8652C69.3141 16.8652 70.668 17.3865 71.613 18.4291C72.558 19.4717 73.0305 20.9996 73.0305 23.0128V30.5625H69.5412V23.3364C69.5412 22.186 69.3141 21.3052 68.8598 20.694C68.4236 20.0828 67.7421 19.7772 66.8153 19.7772C65.8703 19.7772 65.1071 20.1188 64.5255 20.8019C63.9621 21.4849 63.6804 22.4376 63.6804 23.6599V30.5625H60.1912V23.3364C60.1912 22.186 59.964 21.3052 59.5097 20.694C59.0554 20.0828 58.3558 19.7772 57.4107 19.7772C56.4839 19.7772 55.7297 20.1188 55.1482 20.8019C54.5848 21.4849 54.3031 22.4376 54.3031 23.6599V30.5625H50.8139Z" fill="#30424F"/>
<path opacity="0.6" d="M81.4892 30.8861C80.1262 30.8861 78.9177 30.5985 77.8637 30.0233C76.8096 29.448 75.9828 28.6392 75.383 27.5966C74.7833 26.554 74.4834 25.3496 74.4834 23.9835C74.4834 22.5994 74.7742 21.3681 75.3557 20.2896C75.9555 19.2111 76.7733 18.3752 77.8091 17.782C78.8632 17.1708 80.0989 16.8652 81.5165 16.8652C82.8432 16.8652 84.0155 17.1529 85.0333 17.728C86.051 18.3033 86.841 19.0942 87.4042 20.1008C87.9862 21.0894 88.2772 22.195 88.2772 23.4173C88.2772 23.615 88.2673 23.8218 88.2493 24.0374C88.2493 24.2531 88.2402 24.4779 88.2221 24.7115H77.9454C78.0182 25.7541 78.3816 26.5719 79.0358 27.1651C79.7082 27.7583 80.5169 28.0549 81.462 28.0549C82.1707 28.0549 82.761 27.9022 83.2337 27.5966C83.7245 27.273 84.0879 26.8596 84.3238 26.3562H87.8678C87.6138 27.2011 87.1863 27.9741 86.587 28.6751C86.005 29.3582 85.2782 29.8974 84.406 30.2929C83.5519 30.6883 82.5793 30.8861 81.4892 30.8861ZM81.5165 19.6694C80.6623 19.6694 79.9081 19.912 79.2539 20.3974C78.5997 20.8648 78.1817 21.5838 78 22.5545H84.7332C84.6789 21.6737 84.3518 20.9727 83.7516 20.4514C83.1523 19.9301 82.4067 19.6694 81.5165 19.6694Z" fill="#30424F"/>
<path opacity="0.6" d="M89.7882 30.5625V17.1888H93.1982L93.2229 19.6964C93.7137 18.8336 94.3763 18.1505 95.2123 17.6472C96.0665 17.1259 97.0661 16.8652 98.2113 16.8652V20.5052H97.2297C96.4668 20.5052 95.7853 20.6221 95.1852 20.8558C94.5859 21.0894 94.1132 21.4939 93.7679 22.0691C93.4407 22.6444 93.2771 23.4442 93.2771 24.4689V30.5625H89.7882Z" fill="#30424F"/>
<path opacity="0.6" d="M104.137 30.8861C102.974 30.8861 102.019 30.7063 101.274 30.3468C100.53 29.9693 99.9747 29.475 99.6113 28.8638C99.248 28.2527 99.0663 27.5786 99.0663 26.8416C99.0663 25.6013 99.5571 24.5946 100.539 23.8218C101.519 23.0488 102.992 22.6623 104.955 22.6623H108.39V22.3387C108.39 21.422 108.126 20.7479 107.599 20.3166C107.072 19.8851 106.417 19.6694 105.636 19.6694C104.927 19.6694 104.31 19.8402 103.783 20.1818C103.256 20.5052 102.928 20.9906 102.801 21.6378H99.3935C99.4847 20.6671 99.8111 19.8222 100.375 19.1032C100.956 18.3842 101.702 17.8359 102.61 17.4584C103.519 17.063 104.536 16.8652 105.664 16.8652C107.59 16.8652 109.107 17.3416 110.215 18.2943C111.324 19.247 111.878 20.5952 111.878 22.3387V30.5625H108.907L108.58 28.4054C108.18 29.1245 107.617 29.7176 106.89 30.185C106.181 30.6524 105.263 30.8861 104.137 30.8861ZM104.927 28.1898C105.927 28.1898 106.699 27.8662 107.244 27.2191C107.808 26.572 108.162 25.772 108.307 24.8194H105.336C104.409 24.8194 103.746 24.9901 103.346 25.3317C102.947 25.6553 102.747 26.0597 102.747 26.545C102.747 27.0663 102.947 27.4707 103.346 27.7583C103.746 28.046 104.273 28.1898 104.927 28.1898Z" fill="#30424F"/>
<path opacity="0.6" d="M114.087 30.5624V14.6443C114.087 12.7139 115.649 11.1489 117.576 11.1489V30.5624H114.087Z" fill="#30424F"/>
<path opacity="0.6" d="M125.934 30.886C124.661 30.886 123.526 30.5803 122.526 29.9692C121.526 29.3581 120.736 28.5222 120.154 27.4616C119.573 26.4011 119.282 25.1968 119.282 23.8486C119.282 22.5005 119.573 21.3051 120.154 20.2625C120.736 19.202 121.526 18.3751 122.526 17.7819C123.526 17.1707 124.661 16.8651 125.934 16.8651C126.951 16.8651 127.842 17.0539 128.605 17.4314C129.368 17.8089 129.987 18.3392 130.458 19.0222V14.6443C130.458 12.7139 132.021 11.1489 133.948 11.1489V30.5624H130.841L130.458 28.648C130.023 29.2412 129.441 29.7625 128.714 30.2119C128.005 30.6613 127.079 30.886 125.934 30.886ZM126.669 27.8661C127.797 27.8661 128.714 27.4976 129.423 26.7606C130.149 26.0056 130.514 25.0439 130.514 23.8756C130.514 22.7072 130.149 21.7544 129.423 21.0174C128.714 20.2625 127.797 19.885 126.669 19.885C125.561 19.885 124.643 20.2535 123.916 20.9905C123.19 21.7275 122.826 22.6801 122.826 23.8486C122.826 25.017 123.19 25.9787 123.916 26.7336C124.643 27.4886 125.561 27.8661 126.669 27.8661Z" fill="#30424F"/>
<path opacity="0.6" d="M21.1158 2.93017L21.0629 2.70819L18.127 2.14893L2.36719 24.9508L11.5469 38.5655L13.8406 39.0024L27.3681 29.7133L21.1158 2.93017ZM24.8756 28.3203L20.6459 29.0684L20.4449 8.21742L24.8756 28.3203ZM8.6831 29.0969L11.5241 35.4534L5.74187 26.9827L8.6831 29.0969ZM10.7786 27.589L18.7065 7.10931L18.5771 29.0745L10.7786 27.589ZM17.5696 31.0016L13.2631 35.7847L11.0098 29.752L17.5696 31.0016ZM23.8337 30.4291L15.1029 36.1351L20.1315 31.2777L23.8337 30.4291ZM16.6833 7.50087L8.86075 26.7999L5.2233 24.5531L16.6833 7.50087Z" fill="#30424F"/>
<path opacity="0.6" fill-rule="evenodd" clip-rule="evenodd" d="M18.1086 2.10547L21.0945 2.67427L21.1533 2.921L27.4118 29.7304L13.8486 39.0442L11.5228 38.6011L2.31891 24.9504L18.1086 2.10547ZM18.1441 2.19234L2.41408 24.951L11.5696 38.5299L13.8312 38.9606L27.3231 29.696L21.077 2.93929L21.0299 2.74207L18.1441 2.19234ZM10.8316 27.5591L18.5374 29.0271L18.6652 7.32286L10.8316 27.5591ZM18.6692 7.09507L18.745 7.10953L18.6154 29.122L10.7243 27.6188L18.6692 7.09507ZM20.4049 8.21779L20.4826 8.20892L24.9222 28.3519L20.6064 29.1152L20.4049 8.21779ZM20.4871 8.59464L20.6841 29.0216L24.8278 28.2886L20.4871 8.59464ZM5.27803 24.5411L8.8412 26.7419L16.5038 7.83734L5.27803 24.5411ZM16.65 7.47887L16.719 7.51565L8.87901 26.8578L5.16719 24.565L16.65 7.47887ZM20.1501 31.3136L15.4276 35.8755L23.6272 30.5166L20.1501 31.3136ZM23.8242 30.3907L23.8545 30.462L15.1237 36.1681L15.075 36.1068L20.1113 31.2418L23.8242 30.3907ZM5.70876 27.0049L5.76408 26.9507L8.71394 29.071L11.5593 35.4373L11.491 35.4756L5.70876 27.0049ZM5.89953 27.1449L11.3085 35.0688L8.65089 29.1226L5.89953 27.1449ZM10.9478 29.7002L17.6448 30.976L13.2483 35.8591L10.9478 29.7002ZM11.0703 29.8037L13.2766 35.7102L17.493 31.0272L11.0703 29.8037Z" fill="#30424F"/>
</g>
</svg>
