<svg width="117" height="28" viewBox="0 0 117 28" fill="none" xmlns="http://www.w3.org/2000/svg">
<g clip-path="url(#clip0_1_239)">
<g opacity="0.6">
<path opacity="0.6" d="M53.9783 26.8008H70.5025V22.9154H58.5532V15.9317H69.553V12.0464H58.5532V5.10021H70.4039V1.21484H53.9783V26.8008Z" fill="#30424F"/>
<path opacity="0.6" d="M83.6379 7.61115H79.9014V3.01367H75.4374V7.61115H72.7491V11.1092H75.4374V21.7784C75.4127 25.3889 78.0023 27.1629 81.3565 27.063C82.6267 27.0255 83.5022 26.7757 83.9832 26.6133L83.2309 23.0777C82.9843 23.1402 82.4787 23.2526 81.9238 23.2526C80.8016 23.2526 79.9014 22.8528 79.9014 21.0288V11.1092H83.6379V7.61115Z" fill="#30424F"/>
<path opacity="0.6" d="M86.6767 26.8007H91.1407V15.5194C91.1407 13.0832 92.9533 11.3592 95.4075 11.3592C96.1593 11.3592 97.0971 11.4967 97.4794 11.6215V7.46136C97.0722 7.3864 96.3693 7.33643 95.8764 7.33643C93.7059 7.33643 91.893 8.58574 91.2024 10.8095H91.0051V7.61127H86.6767V26.8007Z" fill="#30424F"/>
<path opacity="0.6" d="M107.233 27.1755C112.782 27.1755 116.308 23.2151 116.308 17.2809C116.308 11.3342 112.782 7.36133 107.233 7.36133C101.683 7.36133 98.1566 11.3342 98.1566 17.2809C98.1566 23.2151 101.683 27.1755 107.233 27.1755ZM107.257 23.5524C104.186 23.5524 102.682 20.779 102.682 17.2684C102.682 13.7579 104.186 10.9468 107.257 10.9468C110.278 10.9468 111.783 13.7579 111.783 17.2684C111.783 20.779 110.278 23.5524 107.257 23.5524Z" fill="#30424F"/>
<path opacity="0.6" d="M33.7613 13.995C33.7613 21.2464 27.959 27.1248 20.8014 27.1248C13.6439 27.1248 7.84151 21.2464 7.84151 13.995C7.84151 6.74363 13.6439 0.865234 20.8014 0.865234C27.959 0.865234 33.7613 6.74363 33.7613 13.995Z" fill="#414347" fill-opacity="0.6"/>
<path opacity="0.6" fill-rule="evenodd" clip-rule="evenodd" d="M17.0982 1.40895C11.7449 3.02307 7.84111 8.04718 7.84111 13.995C7.84111 19.9429 11.7449 24.9669 17.0982 26.5811C15.9249 26.9348 14.682 27.1248 13.3954 27.1248C6.2378 27.1248 0.43544 21.2464 0.43544 13.995C0.43544 6.74363 6.2378 0.865234 13.3954 0.865234C14.682 0.865234 15.9249 1.0552 17.0982 1.40895Z" fill="#414347" fill-opacity="0.25"/>
<path opacity="0.6" d="M41.2862 13.995C41.2862 21.2464 35.4838 27.1248 28.3262 27.1248C21.1687 27.1248 15.3663 21.2464 15.3663 13.995C15.3663 6.74363 21.1687 0.865234 28.3262 0.865234C35.4838 0.865234 41.2862 6.74363 41.2862 13.995Z" fill="#30424F"/>
</g>
</g>
<defs>
<clipPath id="clip0_1_239">
<rect width="117" height="28" fill="white"/>
</clipPath>
</defs>
</svg>
