<svg width="168" height="28" viewBox="0 0 168 28" fill="none" xmlns="http://www.w3.org/2000/svg">
<g clip-path="url(#clip0_1_273)">
<g opacity="0.6">
<path opacity="0.4" d="M29.4942 10.6021L18.1477 18.5729H13.1046L1.75812 10.6021L15.6262 1.49268L29.4942 10.6021Z" fill="#30424F"/>
<path opacity="0.6" fill-rule="evenodd" clip-rule="evenodd" d="M14.9851 0.545244C15.3732 0.290257 15.879 0.290257 16.2671 0.545244L30.1352 9.65464C30.4567 9.86588 30.6499 10.2214 30.6499 10.6021V25.4049C30.6499 26.0089 30.4063 26.5881 29.9729 27.0152C29.5394 27.4423 28.9515 27.6823 28.3385 27.6823H2.9137C2.3007 27.6823 1.7128 27.4423 1.27933 27.0152C0.84587 26.5881 0.602356 26.0089 0.602356 25.4049V10.6021C0.602356 10.2214 0.795471 9.86588 1.11698 9.65464L14.9851 0.545244ZM2.9137 11.2115V25.4049H28.3385V11.2115L15.6261 2.8612L2.9137 11.2115Z" fill="#30424F"/>
<path opacity="0.6" fill-rule="evenodd" clip-rule="evenodd" d="M14.049 17.9159C14.4172 18.4295 14.2931 19.1401 13.7718 19.5029L2.78157 27.1519C2.26025 27.5146 1.53912 27.3924 1.17088 26.8787C0.802638 26.3651 0.926731 25.6545 1.44805 25.2918L12.4383 17.6428C12.9596 17.28 13.6808 17.4023 14.049 17.9159Z" fill="#30424F"/>
<path opacity="0.6" fill-rule="evenodd" clip-rule="evenodd" d="M17.2041 17.9159C17.5724 17.4023 18.2935 17.28 18.8148 17.6428L29.8053 25.2918C30.3266 25.6547 30.4507 26.3651 30.0824 26.8789C29.7142 27.3925 28.993 27.5148 28.4717 27.1519L17.4813 19.5029C16.9599 19.1401 16.8358 18.4296 17.2041 17.9159Z" fill="#30424F"/>
<path opacity="0.6" fill-rule="evenodd" clip-rule="evenodd" d="M0.817123 9.94109C1.18765 9.42901 1.90932 9.30993 2.42901 9.675L13.4744 17.4342H17.7779L28.8233 9.675C29.3431 9.30993 30.0647 9.42901 30.4352 9.94109C30.8057 10.4532 30.6849 11.1642 30.1652 11.5293L18.8187 19.5C18.6227 19.6376 18.3882 19.7115 18.1477 19.7115H13.1046C12.8641 19.7115 12.6296 19.6376 12.4337 19.5L1.08722 11.5293C0.567522 11.1642 0.446596 10.4532 0.817123 9.94109Z" fill="#30424F"/>
<path opacity="0.6" d="M43.0868 23.4858C42.7769 23.4858 42.5161 23.3813 42.304 23.1724C42.0921 22.9636 41.9861 22.7065 41.9861 22.4012V8.01346C41.9861 7.57966 42.141 7.21012 42.4508 6.90485C42.7606 6.58351 43.1357 6.42285 43.576 6.42285H43.8939C44.4157 6.42285 44.8642 6.66385 45.2393 7.14585L54.6563 20.5455V7.53145C54.6563 7.22619 54.7623 6.96911 54.9742 6.76025C55.1862 6.53531 55.4471 6.42285 55.757 6.42285C56.0668 6.42285 56.3277 6.53531 56.5396 6.76025C56.768 6.96911 56.8821 7.22619 56.8821 7.53145V21.9192C56.8821 22.353 56.719 22.7226 56.3929 23.0278C56.0831 23.3331 55.708 23.4858 55.2678 23.4858H54.9742C54.7134 23.4858 54.4687 23.4295 54.2405 23.317C54.0121 23.1885 53.8247 23.0279 53.6779 22.835L44.212 9.36305V22.4012C44.212 22.7065 44.0978 22.9636 43.8695 23.1724C43.6575 23.3813 43.3966 23.4858 43.0868 23.4858Z" fill="#30424F"/>
<path opacity="0.6" d="M66.3496 23.6061C65.094 23.6061 63.9933 23.341 63.0475 22.8108C62.1017 22.2806 61.368 21.5335 60.8462 20.5695C60.3406 19.5894 60.0879 18.4728 60.0879 17.2196C60.0879 15.9664 60.3406 14.8578 60.8462 13.8937C61.368 12.9137 62.1017 12.1586 63.0475 11.6284C63.9933 11.0982 65.094 10.833 66.3496 10.833C67.5889 10.833 68.6815 11.0982 69.6272 11.6284C70.573 12.1586 71.3068 12.9137 71.8286 13.8937C72.3504 14.8578 72.6113 15.9664 72.6113 17.2196C72.6113 18.4728 72.3504 19.5894 71.8286 20.5695C71.3068 21.5335 70.573 22.2806 69.6272 22.8108C68.6815 23.341 67.5889 23.6061 66.3496 23.6061ZM66.3496 21.6058C67.0182 21.6058 67.6542 21.4532 68.2575 21.1479C68.8771 20.8426 69.3826 20.3607 69.774 19.7019C70.1817 19.0432 70.3855 18.2077 70.3855 17.1955C70.3855 16.1994 70.1817 15.3719 69.774 14.7131C69.3826 14.0544 68.8771 13.5805 68.2575 13.2912C67.6542 12.986 67.0182 12.8334 66.3496 12.8334C65.6647 12.8334 65.0125 12.986 64.3928 13.2912C63.7895 13.5805 63.2921 14.0544 62.9008 14.7131C62.5094 15.3719 62.3138 16.1994 62.3138 17.1955C62.3138 18.2077 62.5094 19.0432 62.9008 19.7019C63.2921 20.3607 63.7895 20.8426 64.3928 21.1479C65.0125 21.4532 65.6647 21.6058 66.3496 21.6058Z" fill="#30424F"/>
<path opacity="0.6" d="M79.2782 23.4857C78.952 23.4857 78.6585 23.3892 78.3976 23.1964C78.1367 23.0037 77.9573 22.7626 77.8595 22.4735L74.3862 12.4478C74.3373 12.3032 74.3128 12.1666 74.3128 12.0381C74.3128 11.7328 74.4188 11.4757 74.6307 11.2669C74.8428 11.058 75.1037 10.9536 75.4135 10.9536C75.6418 10.9536 75.8456 11.0178 76.025 11.1464C76.2206 11.2589 76.3511 11.4115 76.4163 11.6043L79.2782 20.8828L82.1155 11.8212C82.197 11.5641 82.3438 11.3552 82.5558 11.1946C82.784 11.0339 83.0368 10.9536 83.314 10.9536C83.5912 10.9536 83.8361 11.0339 84.0476 11.1946C84.2758 11.3552 84.4312 11.5641 84.5123 11.8212L87.3499 20.8828L90.2118 11.6043C90.277 11.4115 90.399 11.2589 90.5787 11.1464C90.7743 11.0178 90.9866 10.9536 91.2148 10.9536C91.524 10.9536 91.7856 11.058 91.9971 11.2669C92.2094 11.4757 92.3155 11.7328 92.3155 12.0381C92.3155 12.1666 92.2905 12.3032 92.242 12.4478L88.7683 22.4735C88.6705 22.7626 88.4917 23.0037 88.2301 23.1964C87.9693 23.3892 87.6759 23.4857 87.3499 23.4857C87.024 23.4857 86.7306 23.3892 86.469 23.1964C86.2082 23.0037 86.021 22.7546 85.9065 22.4493L83.314 14.4722L80.7213 22.4493C80.6071 22.7546 80.4196 23.0037 80.1587 23.1964C79.8978 23.3892 79.6043 23.4857 79.2782 23.4857Z" fill="#30424F"/>
<path opacity="0.6" fill-rule="evenodd" clip-rule="evenodd" d="M45.3676 7.04841C45.3692 7.05047 45.3707 7.05256 45.3722 7.05468L54.4931 20.0329V7.53147C54.4931 7.18632 54.6144 6.88875 54.8565 6.6491C55.0987 6.39318 55.402 6.2627 55.7563 6.2627C56.1096 6.2627 56.4121 6.39243 56.654 6.64694C56.9124 6.88525 57.044 7.18335 57.044 7.53147V21.9192C57.044 22.3974 56.8624 22.8081 56.5057 23.1426C56.1656 23.477 55.7496 23.6459 55.2671 23.6459H54.9736C54.688 23.6459 54.4184 23.5842 54.1671 23.4603C54.1644 23.459 54.1618 23.4576 54.1592 23.4561C53.913 23.3176 53.7082 23.1427 53.5472 22.9312L53.5436 22.9262L44.3738 9.87577V22.4012C44.3738 22.7503 44.2414 23.0491 43.9816 23.2878C43.7384 23.5264 43.4364 23.6459 43.0861 23.6459C42.7348 23.6459 42.432 23.5257 42.1885 23.2857C41.9448 23.0456 41.8229 22.7474 41.8229 22.4012V8.01347C41.8229 7.5381 41.9942 7.12826 42.3337 6.79306C42.6732 6.44166 43.0901 6.2627 43.5753 6.2627H43.8933C44.4752 6.2627 44.9681 6.53494 45.3676 7.04841ZM42.4502 6.90486C42.76 6.58353 43.135 6.42286 43.5753 6.42286H43.8933C44.4151 6.42286 44.8635 6.66386 45.2385 7.14586L54.6556 20.5455V7.53147C54.6556 7.22619 54.7616 6.96913 54.9736 6.76026C55.1856 6.53532 55.4465 6.42286 55.7563 6.42286C56.0661 6.42286 56.327 6.53532 56.539 6.76026C56.7673 6.96913 56.8814 7.22619 56.8814 7.53147V21.9192C56.8814 22.3531 56.7184 22.7226 56.3922 23.0279C56.0824 23.3331 55.7074 23.4857 55.2671 23.4857H54.9736C54.7127 23.4857 54.4681 23.4295 54.2398 23.3171C54.0115 23.1885 53.824 23.0279 53.6772 22.8351L44.2112 9.36304V22.4012C44.2112 22.7065 44.0971 22.9635 43.8688 23.1725C43.6568 23.3813 43.396 23.4857 43.0861 23.4857C42.7763 23.4857 42.5154 23.3813 42.3034 23.1725C42.0914 22.9635 41.9854 22.7065 41.9854 22.4012V8.01347C41.9854 7.57967 42.1403 7.21012 42.4502 6.90486ZM60.7006 20.6422C60.1819 19.6366 59.9247 18.4946 59.9247 17.2197C59.9247 15.9449 60.1819 14.8104 60.7011 13.8204L60.7015 13.8195C61.2373 12.8132 61.9927 12.0351 62.9665 11.4893C63.9403 10.9433 65.0696 10.673 66.349 10.673C67.6125 10.673 68.7334 10.9436 69.7069 11.4893C70.6804 12.0351 71.4358 12.8128 71.9715 13.8188C72.5075 14.8091 72.7732 15.9443 72.7732 17.2197C72.7732 18.4954 72.5075 19.6381 71.9719 20.6441L71.9714 20.645C71.4353 21.6352 70.6799 22.4047 69.7069 22.9501C68.7334 23.4959 67.6125 23.7664 66.349 23.7664C65.0696 23.7664 63.9403 23.4961 62.9665 22.9501C61.9934 22.4047 61.238 21.6352 60.7021 20.645L60.7006 20.6422ZM71.8279 13.8939C71.3061 12.9138 70.5724 12.1587 69.6265 11.6285C68.6808 11.0983 67.5882 10.8332 66.349 10.8332C65.0933 10.8332 63.9926 11.0983 63.0469 11.6285C62.1011 12.1587 61.3673 12.9138 60.8455 13.8939C60.34 14.8579 60.0872 15.9665 60.0872 17.2197C60.0872 18.4729 60.34 19.5895 60.8455 20.5696C61.3673 21.5336 62.1011 22.2808 63.0469 22.8109C63.9926 23.3411 65.0933 23.6062 66.349 23.6062C67.5882 23.6062 68.6808 23.3411 69.6265 22.8109C70.5724 22.2808 71.3061 21.5336 71.8279 20.5696C72.3497 19.5895 72.6107 18.4729 72.6107 17.2197C72.6107 15.9665 72.3497 14.8579 71.8279 13.8939ZM68.1826 21.0055L68.1841 21.0048C68.7723 20.715 69.2556 20.2564 69.6331 19.6211L69.6345 19.6186C70.0225 18.9917 70.2222 18.1874 70.2222 17.1956C70.2222 16.2205 70.0227 15.424 69.6345 14.7967L69.633 14.7942C69.2559 14.1595 68.7736 13.7098 68.1872 13.4361L68.1825 13.4339C67.6018 13.1402 66.9913 12.9936 66.349 12.9936C65.6896 12.9936 65.0622 13.1404 64.4648 13.4346L64.4633 13.4354C63.8931 13.7087 63.4181 14.1584 63.0404 14.7942C62.6674 15.422 62.4756 16.2195 62.4756 17.1956C62.4756 18.1884 62.6676 18.9936 63.0404 19.6211C63.4182 20.2571 63.8939 20.7157 64.4657 21.0052C65.0628 21.2992 65.6899 21.4458 66.349 21.4458C66.9913 21.4458 67.6019 21.2994 68.1826 21.0055ZM64.3921 21.1481C63.7888 20.8428 63.2914 20.3608 62.9001 19.702C62.5088 19.0433 62.313 18.2078 62.313 17.1956C62.313 16.1995 62.5088 15.372 62.9001 14.7133C63.2914 14.0546 63.7888 13.5806 64.3921 13.2914C65.0118 12.9862 65.6641 12.8335 66.349 12.8335C67.0175 12.8335 67.6534 12.9862 68.2568 13.2914C68.8765 13.5806 69.382 14.0546 69.7733 14.7133C70.1809 15.372 70.3848 16.1995 70.3848 17.1956C70.3848 18.2078 70.1809 19.0433 69.7733 19.702C69.382 20.3608 68.8765 20.8428 68.2568 21.1481C67.6534 21.4533 67.0175 21.606 66.349 21.606C65.6641 21.606 65.0118 21.4533 64.3921 21.1481ZM92.2412 12.4479L88.7675 22.4735C88.6697 22.7628 88.4909 23.0037 88.2301 23.1965C87.9685 23.3893 87.6751 23.4857 87.3491 23.4857C87.0232 23.4857 86.7298 23.3893 86.469 23.1965C86.2074 23.0037 86.0202 22.7547 85.9065 22.4494L83.3134 14.4723L80.7206 22.4494C80.6065 22.7547 80.4189 23.0037 80.1581 23.1965C79.8971 23.3893 79.6037 23.4857 79.2775 23.4857C78.9514 23.4857 78.6578 23.3893 78.3969 23.1965C78.136 23.0037 77.9567 22.7628 77.8588 22.4735L74.3855 12.4479C74.3366 12.3033 74.3122 12.1667 74.3122 12.0382C74.3122 11.7329 74.4181 11.4759 74.6301 11.267C74.8421 11.0581 75.103 10.9537 75.4128 10.9537C75.6411 10.9537 75.845 11.0179 76.0243 11.1465C76.22 11.259 76.3505 11.4116 76.4157 11.6044L79.2775 20.8829L82.1148 11.8213C82.1964 11.5642 82.3431 11.3553 82.5551 11.1946C82.7834 11.034 83.0361 10.9537 83.3134 10.9537C83.5904 10.9537 83.8353 11.034 84.0468 11.1946C84.2758 11.3553 84.4304 11.5642 84.5115 11.8213L87.3491 20.8829L90.211 11.6044C90.2762 11.4116 90.3982 11.259 90.5779 11.1465C90.7735 11.0179 90.9858 10.9537 91.214 10.9537C91.524 10.9537 91.7848 11.0581 91.9963 11.267C92.2086 11.4759 92.3147 11.7329 92.3147 12.0382C92.3147 12.1667 92.2905 12.3033 92.2412 12.4479ZM90.4893 11.0122C90.71 10.8674 90.9532 10.7935 91.214 10.7935C91.565 10.7935 91.8676 10.9137 92.1116 11.1537C92.3549 11.3938 92.4769 11.6921 92.4769 12.0382C92.4769 12.1868 92.4485 12.3406 92.3958 12.4985L92.395 12.4996L88.9221 22.5242C88.9221 22.5244 88.9221 22.5247 88.9221 22.525C88.8126 22.8464 88.6129 23.1136 88.327 23.3247C88.0387 23.5383 87.7102 23.6459 87.3491 23.6459C86.9881 23.6459 86.6604 23.5383 86.3712 23.3247C86.0845 23.1131 85.8781 22.8387 85.7535 22.5048C85.7527 22.5026 85.7519 22.5005 85.751 22.4982L83.3134 14.9975L80.8754 22.4982C80.8747 22.5005 80.8739 22.5026 80.8731 22.5048C80.7483 22.8387 80.5419 23.1131 80.2556 23.3247C79.9666 23.5383 79.6388 23.6459 79.2775 23.6459C78.9162 23.6459 78.5885 23.5383 78.2994 23.3247C78.0138 23.1136 77.8138 22.8464 77.7048 22.525C77.7048 22.5247 77.7047 22.5244 77.7046 22.5242L74.2313 12.4985C74.1778 12.3406 74.1496 12.1868 74.1496 12.0382C74.1496 11.6921 74.2715 11.3938 74.5152 11.1537C74.7587 10.9137 75.0615 10.7935 75.4128 10.7935C75.6716 10.7935 75.9069 10.8663 76.1133 11.0122C76.3358 11.1419 76.4917 11.3227 76.5699 11.5537L76.5713 11.5578L79.2787 20.3359L81.9595 11.7741L81.9597 11.7735C82.0509 11.4858 82.2169 11.2489 82.456 11.0677L82.4606 11.0644C82.7161 10.8845 83.0019 10.7935 83.3134 10.7935C83.6239 10.7935 83.903 10.8841 84.1437 11.0659C84.3987 11.2461 84.575 11.483 84.667 11.7735V11.7741L87.3483 20.3359L90.0564 11.5537C90.1341 11.3254 90.2803 11.1438 90.4893 11.0122Z" fill="#30424F"/>
<path opacity="0.6" d="M97.3605 23.4858C97.0505 23.4858 96.7897 23.3813 96.5774 23.1724C96.3659 22.9636 96.2598 22.7065 96.2598 22.4012V7.53145C96.2598 7.22619 96.3659 6.96911 96.5774 6.76025C96.7897 6.53531 97.0505 6.42285 97.3605 6.42285C97.6706 6.42285 97.9314 6.53531 98.1429 6.76025C98.371 6.96911 98.4856 7.22619 98.4856 7.53145V22.4012C98.4856 22.7065 98.371 22.9636 98.1429 23.1724C97.9314 23.3813 97.6706 23.4858 97.3605 23.4858Z" fill="#30424F"/>
<path opacity="0.6" d="M103.656 23.4856C103.347 23.4856 103.085 23.3812 102.874 23.1723C102.661 22.9634 102.555 22.7064 102.555 22.4011V12.0621C102.555 11.7568 102.661 11.4998 102.874 11.291C103.085 11.066 103.347 10.9536 103.656 10.9536C103.966 10.9536 104.227 11.066 104.439 11.291C104.667 11.4998 104.781 11.7568 104.781 12.0621V13.0503C105.401 12.3755 106.07 11.8372 106.787 11.4356C107.505 11.0339 108.352 10.833 109.331 10.833C110.228 10.833 111.002 11.0419 111.655 11.4596C112.323 11.8774 112.828 12.4478 113.171 13.1708C113.53 13.8937 113.709 14.6891 113.709 15.5567V22.4011C113.709 22.7064 113.595 22.9634 113.367 23.1723C113.155 23.3812 112.893 23.4856 112.584 23.4856C112.274 23.4856 112.013 23.3812 111.801 23.1723C111.59 22.9634 111.483 22.7064 111.483 22.4011V15.7977C111.483 13.8375 110.587 12.8575 108.793 12.8575C107.977 12.8575 107.243 13.0663 106.591 13.484C105.955 13.9018 105.352 14.4641 104.781 15.171V22.4011C104.781 22.7064 104.667 22.9634 104.439 23.1723C104.227 23.3812 103.966 23.4856 103.656 23.4856Z" fill="#30424F"/>
<path opacity="0.6" fill-rule="evenodd" clip-rule="evenodd" d="M97.3606 23.6459C97.0095 23.6459 96.7061 23.5257 96.4629 23.2857C96.2197 23.0456 96.0977 22.7474 96.0977 22.4012V7.53147C96.0977 7.18632 96.2188 6.88876 96.4604 6.6491C96.7028 6.39318 97.0062 6.2627 97.3606 6.2627C97.7141 6.2627 98.0167 6.39243 98.2583 6.64694C98.5165 6.88525 98.6486 7.18335 98.6486 7.53147V22.4012C98.6486 22.7503 98.5157 23.0491 98.2557 23.2878C98.0125 23.5264 97.7108 23.6459 97.3606 23.6459ZM98.1429 23.1725C98.3719 22.9635 98.4856 22.7065 98.4856 22.4012V7.53147C98.4856 7.22619 98.3719 6.96913 98.1429 6.76026C97.9314 6.53532 97.6707 6.42286 97.3606 6.42286C97.0505 6.42286 96.7897 6.53532 96.5783 6.76026C96.366 6.96913 96.2598 7.22619 96.2598 7.53147V22.4012C96.2598 22.7065 96.366 22.9635 96.5783 23.1725C96.7897 23.3813 97.0505 23.4857 97.3606 23.4857C97.6707 23.4857 97.9314 23.3813 98.1429 23.1725ZM103.656 23.6459C103.305 23.6459 103.002 23.5257 102.758 23.2857C102.515 23.0456 102.393 22.7474 102.393 22.4012V12.0623C102.393 11.7172 102.514 11.4196 102.757 11.1799C102.999 10.924 103.302 10.7935 103.656 10.7935C104.01 10.7935 104.312 10.9233 104.554 11.1778C104.813 11.4161 104.944 11.7142 104.944 12.0623V12.6474C105.494 12.0973 106.082 11.6466 106.707 11.2964C107.453 10.8787 108.33 10.673 109.331 10.673C110.254 10.673 111.061 10.8882 111.743 11.325C112.437 11.7592 112.963 12.3527 113.318 13.1019C113.688 13.8481 113.872 14.6673 113.872 15.5568V22.4012C113.872 22.7503 113.739 23.0491 113.479 23.2878C113.236 23.5264 112.934 23.6459 112.584 23.6459C112.233 23.6459 111.93 23.5257 111.687 23.2857C111.443 23.0456 111.321 22.7474 111.321 22.4012V15.7978C111.321 14.8386 111.101 14.1491 110.69 13.6999C110.282 13.2539 109.66 13.0178 108.793 13.0178C108.008 13.0178 107.305 13.2183 106.681 13.618C106.075 14.0163 105.496 14.5518 104.944 15.2274V22.4012C104.944 22.7503 104.812 23.0491 104.552 23.2878C104.309 23.5264 104.007 23.6459 103.656 23.6459ZM104.439 23.1725C104.667 22.9635 104.782 22.7065 104.782 22.4012V15.1712C105.352 14.4642 105.955 13.9019 106.591 13.4842C107.244 13.0664 107.977 12.8576 108.793 12.8576C110.587 12.8576 111.483 13.8377 111.483 15.7978V22.4012C111.483 22.7065 111.59 22.9635 111.801 23.1725C112.013 23.3813 112.274 23.4857 112.584 23.4857C112.894 23.4857 113.155 23.3813 113.367 23.1725C113.596 22.9635 113.709 22.7065 113.709 22.4012V15.5568C113.709 14.6892 113.53 13.8939 113.171 13.1709C112.829 12.4479 112.323 11.8775 111.655 11.4598C111.002 11.042 110.228 10.8332 109.331 10.8332C108.352 10.8332 107.505 11.034 106.787 11.4357C106.132 11.8025 105.517 12.2831 104.944 12.8777C104.89 12.9342 104.835 12.9918 104.782 13.0504V12.0623C104.782 11.757 104.667 11.4999 104.439 11.2911C104.227 11.0662 103.966 10.9537 103.656 10.9537C103.347 10.9537 103.086 11.0662 102.874 11.2911C102.661 11.4999 102.556 11.757 102.556 12.0623V22.4012C102.556 22.7065 102.661 22.9635 102.874 23.1725C103.086 23.3813 103.347 23.4857 103.656 23.4857C103.966 23.4857 104.227 23.3813 104.439 23.1725Z" fill="#30424F"/>
<path opacity="0.6" d="M121.268 23.4858C120.959 23.4858 120.697 23.3814 120.486 23.1726C120.274 22.9636 120.168 22.7066 120.168 22.4013V8.59197H115.178C114.884 8.59197 114.64 8.49554 114.444 8.30275C114.248 8.10996 114.151 7.86896 114.151 7.57976C114.151 7.29055 114.248 7.04956 114.444 6.85675C114.64 6.64789 114.884 6.54346 115.178 6.54346H127.359C127.652 6.54346 127.897 6.64789 128.093 6.85675C128.305 7.04956 128.41 7.29055 128.41 7.57976C128.41 7.86896 128.305 8.10996 128.093 8.30275C127.897 8.49554 127.652 8.59197 127.359 8.59197H122.393V22.4013C122.393 22.7066 122.28 22.9636 122.052 23.1726C121.839 23.3814 121.578 23.4858 121.268 23.4858Z" fill="#30424F"/>
<path opacity="0.6" d="M134.671 23.606C132.681 23.606 131.123 23.0517 129.998 21.9432C128.89 20.8185 128.335 19.244 128.335 17.2196C128.335 16.0788 128.547 15.0264 128.971 14.0624C129.395 13.0984 130.048 12.3191 130.928 11.7247C131.809 11.1302 132.893 10.833 134.182 10.833C135.388 10.833 136.432 11.1142 137.312 11.6765C138.193 12.2228 138.862 12.9618 139.318 13.8937C139.774 14.8095 140.002 15.8137 140.002 16.9062C140.002 17.2115 139.897 17.4686 139.685 17.6774C139.489 17.8863 139.22 17.9907 138.877 17.9907H130.586C130.716 19.1154 131.14 19.9911 131.857 20.6176C132.575 21.2442 133.578 21.5576 134.866 21.5576C135.551 21.5576 136.146 21.4933 136.652 21.3647C137.174 21.2362 137.679 21.0514 138.169 20.8105C138.299 20.7462 138.445 20.714 138.608 20.714C138.87 20.714 139.098 20.8024 139.294 20.9791C139.489 21.1559 139.587 21.3809 139.587 21.6539C139.587 22.0074 139.375 22.3047 138.951 22.5457C138.315 22.8991 137.687 23.1642 137.068 23.3409C136.448 23.5177 135.649 23.606 134.671 23.606ZM137.802 16.2074C137.752 15.4201 137.541 14.7613 137.166 14.2311C136.807 13.7009 136.358 13.3153 135.82 13.0743C135.282 12.8172 134.736 12.6887 134.182 12.6887C133.627 12.6887 133.081 12.8172 132.543 13.0743C132.004 13.3153 131.556 13.7009 131.197 14.2311C130.838 14.7613 130.635 15.4201 130.586 16.2074H137.802Z" fill="#30424F"/>
<path opacity="0.6" d="M148.72 23.606C147.547 23.606 146.462 23.349 145.467 22.8349C144.472 22.3207 143.673 21.5816 143.07 20.6176C142.483 19.6537 142.19 18.5209 142.19 17.2196C142.19 15.9181 142.483 14.7855 143.07 13.8214C143.673 12.8574 144.472 12.1184 145.467 11.6042C146.462 11.09 147.547 10.833 148.72 10.833C149.585 10.833 150.327 10.9455 150.947 11.1704C151.582 11.3793 152.17 11.6524 152.708 11.9898C153.034 12.1987 153.197 12.4798 153.197 12.8333C153.197 13.0743 153.099 13.2992 152.903 13.5081C152.724 13.7009 152.511 13.7973 152.267 13.7973C152.088 13.7973 151.909 13.7491 151.729 13.6527C151.191 13.3796 150.726 13.1867 150.335 13.0743C149.96 12.9458 149.487 12.8815 148.917 12.8815C147.514 12.8815 146.413 13.2832 145.614 14.0865C144.815 14.8738 144.416 15.9181 144.416 17.2196C144.416 18.5209 144.815 19.5733 145.614 20.3766C146.413 21.1639 147.514 21.5576 148.917 21.5576C149.487 21.5576 149.96 21.5013 150.335 21.3888C150.726 21.2603 151.191 21.0595 151.729 20.7863C151.909 20.6899 152.088 20.6417 152.267 20.6417C152.511 20.6417 152.724 20.7462 152.903 20.955C153.099 21.1479 153.197 21.3647 153.197 21.6058C153.197 21.9592 153.034 22.2404 152.708 22.4492C152.17 22.7866 151.582 23.0679 150.947 23.2928C150.327 23.5016 149.585 23.606 148.72 23.606Z" fill="#30424F"/>
<path opacity="0.6" d="M157.091 23.4859C156.781 23.4859 156.52 23.3815 156.308 23.1727C156.096 22.9637 155.99 22.7067 155.99 22.4014V6.76047C155.99 6.45519 156.096 6.19813 156.308 5.98926C156.52 5.76432 156.781 5.65186 157.091 5.65186C157.401 5.65186 157.662 5.76432 157.873 5.98926C158.101 6.19813 158.216 6.45519 158.216 6.76047V13.0506C158.835 12.3758 159.504 11.8375 160.222 11.4359C160.939 11.0343 161.787 10.8334 162.765 10.8334C163.662 10.8334 164.437 11.0422 165.089 11.46C165.758 11.8777 166.263 12.4481 166.606 13.1711C166.964 13.8941 167.144 14.6894 167.144 15.557V22.4014C167.144 22.7067 167.03 22.9637 166.801 23.1727C166.589 23.3815 166.328 23.4859 166.018 23.4859C165.709 23.4859 165.448 23.3815 165.236 23.1727C165.024 22.9637 164.918 22.7067 164.918 22.4014V15.798C164.918 13.8379 164.021 12.8578 162.227 12.8578C161.412 12.8578 160.678 13.0666 160.026 13.4844C159.39 13.9021 158.787 14.4645 158.216 15.1714V22.4014C158.216 22.7067 158.101 22.9637 157.873 23.1727C157.662 23.3815 157.401 23.4859 157.091 23.4859Z" fill="#30424F"/>
<path opacity="0.6" fill-rule="evenodd" clip-rule="evenodd" d="M129.882 22.0552C128.736 20.8926 128.172 19.2734 128.172 17.22C128.172 16.0592 128.388 14.9849 128.822 13.9991C129.258 13.0075 129.93 12.2045 130.836 11.593C131.749 10.9767 132.866 10.6732 134.181 10.6732C135.414 10.6732 136.489 10.9607 137.399 11.5419C138.305 12.1042 138.994 12.866 139.463 13.8241C139.931 14.7633 140.165 15.7916 140.165 16.9066C140.165 17.2517 140.043 17.5492 139.801 17.7888C139.57 18.035 139.254 18.1513 138.877 18.1513H130.77C130.92 19.158 131.321 19.9356 131.965 20.4982C132.644 21.0911 133.603 21.3978 134.866 21.3978C135.541 21.3978 136.122 21.3344 136.611 21.2101L136.612 21.2098C137.122 21.0841 137.616 20.9035 138.095 20.6676C138.251 20.5909 138.423 20.5543 138.608 20.5543C138.91 20.5543 139.178 20.6582 139.402 20.8615C139.634 21.0701 139.749 21.3386 139.749 21.6543C139.749 22.0852 139.485 22.427 139.031 22.6848L139.03 22.6856C138.385 23.0443 137.746 23.3146 137.112 23.4952C136.472 23.6777 135.656 23.7666 134.67 23.7666C132.649 23.7666 131.046 23.2026 129.883 22.0568L129.882 22.0552ZM130.606 18.1513C130.599 18.0985 130.591 18.0451 130.585 17.9911H138.877C139.219 17.9911 139.488 17.8867 139.684 17.6779C139.896 17.469 140.002 17.2119 140.002 16.9066C140.002 15.8141 139.774 14.8099 139.317 13.8941C138.861 12.9622 138.192 12.2232 137.312 11.6769C136.431 11.1146 135.387 10.8334 134.181 10.8334C132.892 10.8334 131.808 11.1306 130.928 11.7251C130.047 12.3196 129.395 13.0988 128.97 14.0628C128.547 15.0268 128.335 16.0792 128.335 17.22C128.335 19.2444 128.889 20.8189 129.998 21.9436C131.124 23.0521 132.681 23.6064 134.67 23.6064C135.649 23.6064 136.448 23.5181 137.067 23.3413C137.686 23.1646 138.314 22.8995 138.95 22.5461C139.375 22.305 139.586 22.0078 139.586 21.6543C139.586 21.3812 139.488 21.1563 139.293 20.9795C139.097 20.8028 138.869 20.7145 138.608 20.7145C138.445 20.7145 138.298 20.7466 138.168 20.8109C137.679 21.0519 137.173 21.2367 136.651 21.3651C136.146 21.4937 135.551 21.558 134.866 21.558C133.578 21.558 132.575 21.2446 131.857 20.618C131.174 20.0215 130.757 19.1992 130.606 18.1513ZM137.029 14.3203C136.686 13.8126 136.26 13.448 135.752 13.2205L135.749 13.2189C135.231 12.9715 134.708 12.8493 134.181 12.8493C133.653 12.8493 133.13 12.9715 132.613 13.2189L132.609 13.2206C132.101 13.448 131.675 13.8126 131.332 14.3203C131.018 14.7844 130.825 15.3581 130.761 16.0476H137.625C137.559 15.3594 137.36 14.7867 137.031 14.3231L137.029 14.3203ZM137.788 16.0476C137.793 16.1004 137.798 16.1537 137.801 16.2077H130.585C130.589 16.1537 130.593 16.1004 130.597 16.0476C130.663 15.3307 130.863 14.7253 131.196 14.2315C131.556 13.7013 132.004 13.3157 132.542 13.0747C133.08 12.8176 133.626 12.6891 134.181 12.6891C134.735 12.6891 135.282 12.8176 135.819 13.0747C136.357 13.3157 136.806 13.7013 137.165 14.2315C137.514 14.7253 137.722 15.3307 137.788 16.0476ZM142.931 20.7021L142.93 20.7005C142.326 19.7079 142.027 18.5457 142.027 17.22C142.027 15.8942 142.326 14.732 142.93 13.7394L142.931 13.7378C143.55 12.7499 144.37 11.9906 145.391 11.4628C146.41 10.936 147.521 10.6732 148.72 10.6732C149.597 10.6732 150.357 10.7871 150.999 11.0196C151.646 11.2323 152.245 11.5107 152.794 11.8551L152.796 11.8559C153.163 12.0914 153.359 12.4208 153.359 12.8337C153.359 13.1221 153.24 13.3843 153.022 13.6171C152.815 13.8396 152.561 13.9579 152.266 13.9579C152.057 13.9579 151.852 13.9015 151.652 13.7947C151.12 13.5246 150.666 13.3369 150.289 13.2285L150.285 13.2273L150.281 13.226C149.929 13.1053 149.476 13.042 148.916 13.042C147.546 13.042 146.491 13.4331 145.73 14.199L145.729 14.2002C144.965 14.9523 144.578 15.9533 144.578 17.22C144.578 18.4861 144.965 19.4956 145.729 20.2642C146.49 21.0143 147.546 21.3978 148.916 21.3978C149.476 21.3978 149.93 21.3426 150.285 21.2367C150.665 21.1117 151.12 20.9152 151.652 20.6452C151.852 20.5384 152.057 20.482 152.266 20.482C152.563 20.482 152.817 20.6108 153.022 20.8469C153.241 21.0644 153.359 21.319 153.359 21.6062C153.359 22.0191 153.163 22.3485 152.796 22.5839L152.794 22.5848C152.246 22.9289 151.647 23.2152 151 23.4439L150.999 23.4447C150.357 23.6608 149.597 23.7666 148.72 23.7666C147.521 23.7666 146.41 23.5038 145.391 22.9771C144.37 22.4493 143.55 21.69 142.931 20.7021ZM152.903 20.9554C152.723 20.7466 152.511 20.6421 152.266 20.6421C152.087 20.6421 151.908 20.6903 151.728 20.7868C151.19 21.0599 150.725 21.2607 150.334 21.3893C149.959 21.5017 149.487 21.558 148.916 21.558C147.513 21.558 146.412 21.1643 145.613 20.3771C144.814 19.5737 144.415 18.5213 144.415 17.22C144.415 15.9185 144.814 14.8741 145.613 14.0869C146.412 13.2836 147.513 12.8819 148.916 12.8819C149.487 12.8819 149.959 12.9462 150.334 13.0747C150.725 13.1871 151.19 13.38 151.728 13.6531C151.908 13.7495 152.087 13.7977 152.266 13.7977C152.511 13.7977 152.723 13.7013 152.903 13.5085C153.098 13.2996 153.196 13.0747 153.196 12.8337C153.196 12.4802 153.033 12.1991 152.707 11.9902C152.169 11.6528 151.582 11.3797 150.946 11.1708C150.326 10.9458 149.584 10.8334 148.72 10.8334C147.546 10.8334 146.462 11.0904 145.466 11.6046C144.472 12.1187 143.673 12.8578 143.07 13.8218C142.482 14.7858 142.189 15.9185 142.189 17.22C142.189 18.5213 142.482 19.6541 143.07 20.618C143.673 21.582 144.472 22.3212 145.466 22.8353C146.462 23.3494 147.546 23.6064 148.72 23.6064C149.584 23.6064 150.326 23.502 150.946 23.2932C151.582 23.0683 152.169 22.787 152.707 22.4496C153.033 22.2408 153.196 21.9596 153.196 21.6062C153.196 21.3651 153.098 21.1483 152.903 20.9554ZM121.268 23.6461C120.916 23.6461 120.614 23.5259 120.37 23.2859C120.127 23.0459 120.005 22.7476 120.005 22.4015V8.75227H115.178C114.843 8.75227 114.557 8.64093 114.329 8.41611C114.1 8.19134 113.988 7.9087 113.988 7.57988C113.988 7.25217 114.1 6.97032 114.326 6.74589C114.553 6.50509 114.84 6.38341 115.178 6.38341H127.358C127.694 6.38341 127.981 6.50429 128.207 6.74355C128.45 6.96658 128.573 7.24902 128.573 7.57988C128.573 7.91181 128.449 8.19501 128.205 8.41842C127.977 8.64167 127.691 8.75227 127.358 8.75227H122.556V22.4015C122.556 22.7505 122.423 23.0493 122.164 23.288C121.92 23.5266 121.618 23.6461 121.268 23.6461ZM122.051 23.1727C122.279 22.9638 122.393 22.7067 122.393 22.4015V8.5921H127.358C127.652 8.5921 127.896 8.49566 128.092 8.30287C128.304 8.11008 128.41 7.86908 128.41 7.57988C128.41 7.29067 128.304 7.04968 128.092 6.85687C127.896 6.64801 127.652 6.54358 127.358 6.54358H115.178C114.884 6.54358 114.639 6.64801 114.444 6.85687C114.247 7.04968 114.15 7.29067 114.15 7.57988C114.15 7.86908 114.247 8.11008 114.444 8.30287C114.639 8.49566 114.884 8.5921 115.178 8.5921H120.167V22.4015C120.167 22.7067 120.273 22.9638 120.485 23.1727C120.698 23.3815 120.958 23.486 121.268 23.486C121.578 23.486 121.838 23.3815 122.051 23.1727ZM157.09 23.6461C156.739 23.6461 156.436 23.5259 156.192 23.2859C155.949 23.0459 155.827 22.7476 155.827 22.4015V6.76048C155.827 6.41531 155.948 6.11774 156.191 5.87808C156.432 5.62217 156.736 5.4917 157.09 5.4917C157.444 5.4917 157.746 5.62145 157.988 5.87594C158.246 6.11425 158.378 6.41236 158.378 6.76048V12.6476C158.927 12.0975 159.515 11.6468 160.141 11.2967C160.887 10.879 161.763 10.6732 162.764 10.6732C163.688 10.6732 164.494 10.8884 165.177 11.3252C165.871 11.7594 166.396 12.3528 166.751 13.1019C167.122 13.8482 167.305 14.6674 167.305 15.557V22.4015C167.305 22.7505 167.173 23.0494 166.913 23.2881C166.67 23.5266 166.368 23.6461 166.018 23.6461C165.666 23.6461 165.364 23.5259 165.121 23.2859C164.876 23.0459 164.754 22.7476 164.754 22.4015V15.798C164.754 14.8388 164.535 14.1493 164.123 13.7001C163.716 13.2541 163.094 13.018 162.227 13.018C161.441 13.018 160.739 13.2185 160.115 13.6182C159.508 14.0165 158.929 14.552 158.378 15.2276V22.4015C158.378 22.7505 158.245 23.0493 157.986 23.288C157.743 23.5266 157.44 23.6461 157.09 23.6461ZM157.873 23.1727C158.101 22.9638 158.215 22.7067 158.215 22.4015V15.1714C158.786 14.4645 159.389 13.9021 160.025 13.4844C160.677 13.0667 161.411 12.8578 162.227 12.8578C164.021 12.8578 164.917 13.8379 164.917 15.798V22.4015C164.917 22.7067 165.023 22.9638 165.235 23.1727C165.447 23.3815 165.708 23.486 166.018 23.486C166.327 23.486 166.588 23.3815 166.801 23.1727C167.029 22.9638 167.143 22.7067 167.143 22.4015V15.557C167.143 14.6894 166.964 13.8941 166.605 13.1711C166.262 12.4481 165.757 11.8777 165.089 11.46C164.436 11.0423 163.661 10.8334 162.764 10.8334C161.786 10.8334 160.938 11.0342 160.221 11.4359C159.566 11.8027 158.951 12.2833 158.378 12.8779C158.323 12.9344 158.269 12.992 158.215 13.0506V6.76048C158.215 6.4552 158.101 6.19814 157.873 5.98927C157.661 5.76434 157.4 5.65187 157.09 5.65187C156.78 5.65187 156.519 5.76434 156.308 5.98927C156.095 6.19814 155.989 6.4552 155.989 6.76048V22.4015C155.989 22.7067 156.095 22.9638 156.308 23.1727C156.519 23.3815 156.78 23.486 157.09 23.486C157.4 23.486 157.661 23.3815 157.873 23.1727Z" fill="#30424F"/>
</g>
</g>
<defs>
<clipPath id="clip0_1_273">
<rect width="168" height="28" fill="white"/>
</clipPath>
</defs>
</svg>
