<svg width="125" height="37" viewBox="0 0 125 37" fill="none" xmlns="http://www.w3.org/2000/svg">
<g opacity="0.6">
<path opacity="0.6" d="M57.9129 24.3484C58.1054 24.3484 58.2717 24.4232 58.4116 24.5725L59.803 26.0877C59.033 27.0451 58.0835 27.7785 56.9548 28.288C55.8347 28.7975 54.4872 29.0522 52.9121 29.0522C51.5033 29.0522 50.2346 28.8107 49.1058 28.3276C47.9858 27.8444 47.0276 27.1724 46.2313 26.3116C45.435 25.4508 44.8225 24.4232 44.3938 23.2286C43.9737 22.0339 43.7637 20.7296 43.7637 19.3154C43.7637 17.8837 44 16.5748 44.4725 15.3891C44.945 14.1944 45.61 13.1668 46.4676 12.306C47.3251 11.4452 48.3488 10.7776 49.5389 10.3033C50.7377 9.82016 52.059 9.57861 53.5028 9.57861C54.9116 9.57861 56.141 9.80697 57.191 10.2638C58.2498 10.7117 59.1555 11.309 59.908 12.0556L58.7267 13.7026C58.6567 13.808 58.5648 13.9002 58.4511 13.9793C58.346 14.0583 58.1973 14.0978 58.0048 14.0978C57.8036 14.0978 57.5979 14.0188 57.3879 13.8607C57.1779 13.7026 56.911 13.5313 56.5872 13.3468C56.2635 13.1624 55.8522 12.9911 55.3535 12.833C54.8634 12.6749 54.2378 12.5958 53.4766 12.5958C52.584 12.5958 51.7615 12.7539 51.0089 13.0701C50.2652 13.3775 49.6221 13.8211 49.0795 14.4009C48.5458 14.9806 48.1258 15.6877 47.8195 16.5221C47.522 17.3478 47.3732 18.2789 47.3732 19.3154C47.3732 20.387 47.522 21.34 47.8195 22.1745C48.1258 23.009 48.537 23.7116 49.0532 24.2826C49.5695 24.8536 50.1777 25.2928 50.8777 25.6002C51.5777 25.8988 52.3302 26.0481 53.1353 26.0481C53.6165 26.0481 54.0496 26.0218 54.4346 25.969C54.8285 25.9164 55.1872 25.833 55.5109 25.7187C55.8435 25.6045 56.1541 25.4597 56.4429 25.284C56.7403 25.0995 57.0335 24.8755 57.3223 24.612C57.4098 24.533 57.5016 24.4714 57.5979 24.4275C57.6942 24.3748 57.7991 24.3484 57.9129 24.3484Z" fill="#30424F"/>
<path opacity="0.6" d="M72.3219 28.8417H70.865C70.5588 28.8417 70.3182 28.7978 70.1432 28.71C69.9682 28.6134 69.8369 28.4245 69.7494 28.1434L69.4606 27.1817C69.1194 27.4891 68.7825 27.7613 68.45 27.9985C68.1262 28.2269 67.7893 28.4201 67.4393 28.5782C67.0893 28.7364 66.7174 28.8549 66.3236 28.934C65.9299 29.013 65.4924 29.0526 65.0111 29.0526C64.4424 29.0526 63.9174 28.9779 63.436 28.8286C62.9548 28.6705 62.5392 28.4377 62.1892 28.1302C61.8479 27.8228 61.581 27.4407 61.3885 26.9839C61.196 26.5272 61.0997 25.9958 61.0997 25.3897C61.0997 24.8803 61.231 24.3796 61.4935 23.8877C61.7648 23.3871 62.211 22.939 62.8323 22.5438C63.4536 22.1398 64.2805 21.806 65.313 21.5424C66.3456 21.2789 67.6275 21.1296 69.1587 21.0945V20.3039C69.1587 19.3992 68.9662 18.7317 68.5812 18.3012C68.2049 17.8621 67.6537 17.6425 66.9275 17.6425C66.4024 17.6425 65.9649 17.7039 65.6149 17.8269C65.2649 17.9499 64.9586 18.0904 64.6961 18.2486C64.4424 18.3979 64.2061 18.534 63.9873 18.657C63.7686 18.7799 63.5279 18.8415 63.2654 18.8415C63.0467 18.8415 62.8585 18.7843 62.701 18.6701C62.5436 18.556 62.4166 18.4155 62.3204 18.2486L61.7298 17.2077C63.2786 15.7847 65.1468 15.0732 67.3343 15.0732C68.1218 15.0732 68.8218 15.205 69.4343 15.4685C70.0557 15.7232 70.5807 16.0833 71.0094 16.5489C71.4382 17.0056 71.7619 17.5547 71.9807 18.1958C72.2082 18.837 72.3219 19.5398 72.3219 20.3039V28.8417ZM66.0218 26.8127C66.3543 26.8127 66.6605 26.782 66.9405 26.7204C67.2206 26.659 67.4831 26.5667 67.7281 26.4437C67.9819 26.3208 68.2225 26.1715 68.45 25.9958C68.6862 25.8114 68.9225 25.5961 69.1587 25.3502V23.0708C68.2137 23.1147 67.4218 23.1982 66.7831 23.3212C66.153 23.4353 65.6455 23.5847 65.2605 23.7691C64.8754 23.9536 64.5998 24.1688 64.4336 24.4147C64.2761 24.6607 64.1973 24.9286 64.1973 25.2185C64.1973 25.7894 64.3636 26.1979 64.6961 26.4437C65.0374 26.6897 65.4792 26.8127 66.0218 26.8127Z" fill="#30424F"/>
<path opacity="0.6" d="M74.9847 28.8417V15.3236H76.8879C77.2205 15.3236 77.4524 15.385 77.5836 15.508C77.7149 15.631 77.8024 15.8418 77.8461 16.1405L78.043 17.7742C78.5242 16.9397 79.0887 16.281 79.7362 15.7979C80.3838 15.3148 81.1097 15.0732 81.915 15.0732C82.5801 15.0732 83.1314 15.227 83.5689 15.5344L83.149 17.9719C83.1226 18.1299 83.0657 18.2441 82.9783 18.3144C82.891 18.3759 82.7724 18.4066 82.6234 18.4066C82.4928 18.4066 82.3133 18.3759 82.0857 18.3144C81.8581 18.2529 81.5561 18.2222 81.1803 18.2222C80.5064 18.2222 79.9287 18.411 79.4474 18.7888C78.9662 19.1576 78.5593 19.7023 78.2267 20.4226V28.8417H74.9847Z" fill="#30424F"/>
<path opacity="0.6" d="M94.6522 28.8416C94.2324 28.8416 93.9567 28.644 93.8253 28.2488L93.5625 26.9444C93.2829 27.2605 92.9896 27.546 92.6835 27.8007C92.3766 28.0555 92.0441 28.2751 91.6859 28.4596C91.3357 28.644 90.9551 28.7845 90.5441 28.8811C90.141 28.9866 89.7035 29.0393 89.2316 29.0393C88.496 29.0393 87.8221 28.8856 87.2099 28.5781C86.5978 28.2707 86.0681 27.8271 85.6218 27.2474C85.1843 26.6589 84.843 25.9342 84.5978 25.0734C84.3614 24.2126 84.2436 23.2288 84.2436 22.122C84.2436 21.1207 84.379 20.1897 84.6506 19.3289C84.9215 18.4681 85.3109 17.7214 85.8189 17.089C86.3261 16.4565 86.9343 15.9647 87.6434 15.6133C88.3518 15.2532 89.1482 15.0731 90.0321 15.0731C90.7845 15.0731 91.4279 15.1961 91.9615 15.442C92.4952 15.6792 92.972 15.9998 93.3918 16.4039V9.2627H96.6338V28.8416H94.6522ZM90.3341 26.4568C91.0072 26.4568 91.5809 26.3163 92.0529 26.0352C92.5256 25.7542 92.972 25.3545 93.3918 24.8362V18.7755C93.0248 18.3275 92.6218 18.0113 92.1843 17.8268C91.7556 17.6424 91.2917 17.5501 90.7933 17.5501C90.3029 17.5501 89.8566 17.6424 89.4543 17.8268C89.0609 18.0113 88.7236 18.2924 88.4439 18.67C88.1723 19.039 87.9623 19.5133 87.8133 20.093C87.6651 20.664 87.5905 21.3403 87.5905 22.122C87.5905 22.9126 87.6514 23.5846 87.774 24.138C87.9054 24.6825 88.0889 25.1305 88.3253 25.4819C88.5617 25.8245 88.851 26.0748 89.1915 26.2329C89.5328 26.3822 89.9135 26.4568 90.3341 26.4568Z" fill="#30424F"/>
<path opacity="0.6" d="M105.187 15.1123C106.035 15.1123 106.814 15.2485 107.523 15.5208C108.24 15.793 108.857 16.1927 109.373 16.7197C109.89 17.238 110.292 17.8792 110.581 18.6434C110.87 19.3988 111.014 20.264 111.014 21.2389C111.014 21.4849 111.002 21.6913 110.975 21.8582C110.957 22.0163 110.918 22.1437 110.857 22.2404C110.804 22.3282 110.73 22.3941 110.634 22.438C110.538 22.4731 110.415 22.4907 110.266 22.4907H101.945C102.041 23.8785 102.413 24.8974 103.06 25.5474C103.708 26.1974 104.566 26.5224 105.633 26.5224C106.158 26.5224 106.609 26.4609 106.985 26.3379C107.37 26.215 107.703 26.0789 107.982 25.9295C108.272 25.7802 108.521 25.644 108.731 25.521C108.949 25.3981 109.159 25.3366 109.361 25.3366C109.492 25.3366 109.606 25.3629 109.702 25.4157C109.798 25.4684 109.881 25.543 109.951 25.6396L110.897 26.8255C110.538 27.2471 110.135 27.6028 109.689 27.8927C109.243 28.1738 108.774 28.4021 108.284 28.5778C107.803 28.7447 107.308 28.8633 106.801 28.9336C106.302 29.0038 105.816 29.0389 105.345 29.0389C104.408 29.0389 103.538 28.8852 102.732 28.5778C101.927 28.2616 101.228 27.8004 100.632 27.1943C100.037 26.5795 99.5689 25.8241 99.2275 24.9282C98.8862 24.0234 98.7163 22.9782 98.7163 21.7923C98.7163 20.8701 98.8645 20.0048 99.1618 19.1968C99.4599 18.3799 99.8838 17.6728 100.435 17.0755C100.995 16.4694 101.674 15.9907 102.47 15.6393C103.275 15.288 104.18 15.1123 105.187 15.1123ZM105.252 17.4444C104.308 17.4444 103.568 17.7123 103.034 18.2481C102.501 18.7839 102.159 19.5437 102.01 20.5275H108.101C108.101 20.1059 108.044 19.7106 107.93 19.3417C107.816 18.964 107.641 18.6346 107.405 18.3535C107.169 18.0725 106.871 17.8529 106.513 17.6947C106.154 17.5278 105.734 17.4444 105.252 17.4444Z" fill="#30424F"/>
<path opacity="0.6" d="M122.596 28.8416C122.175 28.8416 121.9 28.644 121.769 28.2488L121.506 26.9444C121.226 27.2605 120.933 27.546 120.627 27.8007C120.321 28.0555 119.988 28.2751 119.63 28.4596C119.28 28.644 118.899 28.7845 118.487 28.8811C118.085 28.9866 117.647 29.0393 117.175 29.0393C116.44 29.0393 115.766 28.8856 115.154 28.5781C114.541 28.2707 114.012 27.8271 113.566 27.2474C113.128 26.6589 112.787 25.9342 112.542 25.0734C112.305 24.2126 112.188 23.2288 112.188 22.122C112.188 21.1207 112.323 20.1897 112.595 19.3289C112.865 18.4681 113.255 17.7214 113.762 17.089C114.27 16.4565 114.878 15.9647 115.587 15.6133C116.296 15.2532 117.092 15.0731 117.976 15.0731C118.728 15.0731 119.371 15.1961 119.905 15.442C120.439 15.6792 120.916 15.9998 121.336 16.4039V9.2627H124.578V28.8416H122.596ZM118.277 26.4568C118.951 26.4568 119.524 26.3163 119.997 26.0352C120.47 25.7542 120.916 25.3545 121.336 24.8362V18.7755C120.968 18.3275 120.566 18.0113 120.128 17.8268C119.7 17.6424 119.236 17.5501 118.737 17.5501C118.247 17.5501 117.8 17.6424 117.398 17.8268C117.004 18.0113 116.667 18.2924 116.388 18.67C116.116 19.039 115.906 19.5133 115.757 20.093C115.609 20.664 115.534 21.3403 115.534 22.122C115.534 22.9126 115.595 23.5846 115.718 24.138C115.849 24.6825 116.033 25.1305 116.269 25.4819C116.506 25.8245 116.794 26.0748 117.135 26.2329C117.477 26.3822 117.857 26.4568 118.277 26.4568Z" fill="#30424F"/>
<path opacity="0.6" fill-rule="evenodd" clip-rule="evenodd" d="M7.1772 7.60306C7.76228 5.59285 9.85999 4.43937 11.8626 5.02669L24.4823 8.72791C26.4848 9.31525 27.6339 11.421 27.0489 13.4312L21.3981 32.8459C20.813 34.8561 18.7153 36.0096 16.7127 35.4223L4.09296 31.7211C2.09041 31.1337 0.941329 29.028 1.52642 27.0178L7.1772 7.60306ZM11.0476 7.82655C10.5855 7.69101 10.1014 7.9572 9.9664 8.42106L4.31559 27.8358C4.18058 28.2997 4.44574 28.7857 4.90787 28.9212L17.5276 32.6224C17.9898 32.758 18.4739 32.4918 18.6089 32.0279L24.2597 12.6132C24.3947 12.1492 24.1295 11.6633 23.6674 11.5278L11.0476 7.82655Z" fill="#30424F"/>
<path opacity="0.6" fill-rule="evenodd" clip-rule="evenodd" d="M15.0609 4.18948C15.646 2.17928 17.7436 1.02579 19.7462 1.61312L32.366 5.31435C34.3686 5.90167 35.5176 8.00738 34.9326 10.0176L29.2818 29.4323C28.6967 31.4425 26.599 32.5961 24.5964 32.0087L11.9767 28.3074C9.97409 27.7202 8.82506 25.6144 9.41015 23.6043L15.0609 4.18948ZM18.9313 4.41297C18.4692 4.27743 17.9851 4.54362 17.8501 5.00751L12.1993 24.4223C12.0643 24.8861 12.3295 25.3721 12.7916 25.5077L25.4114 29.2089C25.8735 29.3444 26.3576 29.0782 26.4926 28.6143L32.1434 9.19959C32.2784 8.73565 32.0132 8.24974 31.5511 8.11421L18.9313 4.41297Z" fill="#30424F"/>
</g>
</svg>
