<svg width="153" height="33" viewBox="0 0 153 33" fill="none" xmlns="http://www.w3.org/2000/svg">
<g opacity="0.6">
<path opacity="0.6" d="M50.4891 26.5617C48.5189 26.5617 46.7926 26.1251 45.3103 25.2519C43.8466 24.3787 42.6927 23.1733 41.8483 21.6357C41.0227 20.0792 40.6099 18.2853 40.6099 16.2542C40.6099 14.2231 41.0227 12.4388 41.8483 10.9012C42.6927 9.3446 43.8466 8.12975 45.3103 7.25656C46.7926 6.38338 48.5189 5.94678 50.4891 5.94678C52.4406 5.94678 54.1574 6.38338 55.6399 7.25656C57.1222 8.12975 58.2762 9.3446 59.1018 10.9012C59.9274 12.4388 60.3402 14.2231 60.3402 16.2542C60.3402 18.2853 59.9274 20.0792 59.1018 21.6357C58.2762 23.1733 57.1222 24.3787 55.6399 25.2519C54.1574 26.1251 52.4406 26.5617 50.4891 26.5617ZM50.4891 23.2872C52.3655 23.2872 53.8573 22.6608 54.9643 21.4079C56.0901 20.1551 56.6531 18.4372 56.6531 16.2542C56.6531 14.0712 56.0901 12.3533 54.9643 11.1005C53.8573 9.84768 52.3655 9.2212 50.4891 9.2212C48.6127 9.2212 47.1116 9.84768 45.9858 11.1005C44.8599 12.3533 44.297 14.0712 44.297 16.2542C44.297 18.4372 44.8599 20.1551 45.9858 21.4079C47.1116 22.6608 48.6127 23.2872 50.4891 23.2872Z" fill="#30424F"/>
<path opacity="0.6" d="M63.4367 32.4841V12.097H66.6454L67.0395 14.1186C67.4898 13.4922 68.0808 12.9417 68.8126 12.4672C69.5632 11.9926 70.5295 11.7554 71.7116 11.7554C73.0252 11.7554 74.1979 12.0781 75.2299 12.7234C76.262 13.3688 77.0782 14.2516 77.6786 15.3715C78.2791 16.4915 78.5793 17.7633 78.5793 19.187C78.5793 20.6107 78.2791 21.8825 77.6786 23.0024C77.0782 24.1034 76.262 24.9766 75.2299 25.622C74.1979 26.2484 73.0252 26.5616 71.7116 26.5616C70.6609 26.5616 69.7414 26.3623 68.9534 25.9637C68.1653 25.565 67.5273 25.005 67.0395 24.2837V32.4841H63.4367ZM70.9517 23.3726C72.0963 23.3726 73.0439 22.9834 73.7945 22.2052C74.545 21.4269 74.9203 20.4208 74.9203 19.187C74.9203 17.9531 74.545 16.9375 73.7945 16.1403C73.0439 15.343 72.0963 14.9444 70.9517 14.9444C69.7884 14.9444 68.8314 15.343 68.0808 16.1403C67.3491 16.9186 66.9832 17.9246 66.9832 19.1585C66.9832 20.3923 67.3491 21.4079 68.0808 22.2052C68.8314 22.9834 69.7884 23.3726 70.9517 23.3726Z" fill="#30424F"/>
<path opacity="0.6" d="M87.4679 26.22C86.0046 26.22 84.8318 25.8592 83.9499 25.1379C83.068 24.4166 82.627 23.1353 82.627 21.294V15.1437H80.2346V12.097H82.627L83.0492 8.31006H86.2297V12.097H90.0016V15.1437H86.2297V21.3225C86.2297 22.0059 86.3704 22.4804 86.6519 22.7461C86.9521 22.9929 87.4592 23.1163 88.1717 23.1163H89.9168V26.22H87.4679Z" fill="#30424F"/>
<path opacity="0.6" d="M95.0366 9.90441C94.38 9.90441 93.8353 9.70502 93.4043 9.30641C92.9916 8.90781 92.7844 8.40476 92.7844 7.79732C92.7844 7.18989 92.9916 6.69634 93.4043 6.31669C93.8353 5.91806 94.38 5.71875 95.0366 5.71875C95.6932 5.71875 96.2282 5.91806 96.6409 6.31669C97.0728 6.69634 97.2879 7.18989 97.2879 7.79732C97.2879 8.40476 97.0728 8.90781 96.6409 9.30641C96.2282 9.70502 95.6932 9.90441 95.0366 9.90441ZM93.2356 26.2198V12.0968H96.8376V26.2198H93.2356Z" fill="#30424F"/>
<path opacity="0.6" d="M100.598 26.22V12.097H103.779L104.088 14.0048C104.538 13.3214 105.129 12.7804 105.861 12.3818C106.612 11.9641 107.475 11.7554 108.451 11.7554C110.608 11.7554 112.138 12.6001 113.039 14.2895C113.545 13.5112 114.221 12.8943 115.066 12.4387C115.928 11.9832 116.867 11.7554 117.88 11.7554C119.7 11.7554 121.098 12.3059 122.074 13.4068C123.05 14.5077 123.537 16.1213 123.537 18.2473V26.22H119.934V18.589C119.934 17.3741 119.7 16.444 119.231 15.7986C118.78 15.1532 118.077 14.8304 117.12 14.8304C116.144 14.8304 115.356 15.1912 114.755 15.9125C114.174 16.6338 113.883 17.6399 113.883 18.9307V26.22H110.281V18.589C110.281 17.3741 110.045 16.444 109.577 15.7986C109.107 15.1532 108.385 14.8304 107.409 14.8304C106.453 14.8304 105.674 15.1912 105.073 15.9125C104.492 16.6338 104.201 17.6399 104.201 18.9307V26.22H100.598Z" fill="#30424F"/>
<path opacity="0.6" d="M133.741 26.5616C132.334 26.5616 131.086 26.2579 129.998 25.6505C128.909 25.043 128.055 24.1888 127.436 23.0878C126.817 21.9868 126.507 20.715 126.507 19.2723C126.507 17.8107 126.807 16.5104 127.408 15.3715C128.027 14.2325 128.872 13.3499 129.941 12.7234C131.029 12.0781 132.306 11.7554 133.769 11.7554C135.138 11.7554 136.349 12.0591 137.4 12.6665C138.45 13.2739 139.267 14.1091 139.848 15.1722C140.449 16.2162 140.75 17.3836 140.75 18.6744C140.75 18.8832 140.74 19.1015 140.721 19.3293C140.721 19.5571 140.712 19.7943 140.693 20.0411H130.082C130.157 21.1421 130.532 22.0059 131.208 22.6323C131.902 23.2586 132.737 23.5719 133.712 23.5719C134.444 23.5719 135.054 23.4105 135.542 23.0878C136.049 22.7461 136.424 22.3096 136.668 21.7781H140.327C140.064 22.6702 139.623 23.4864 139.004 24.2268C138.404 24.9481 137.653 25.5176 136.752 25.9352C135.87 26.3528 134.866 26.5616 133.741 26.5616ZM133.769 14.7166C132.887 14.7166 132.108 14.9729 131.433 15.4854C130.757 15.9789 130.325 16.7382 130.138 17.7633H137.09C137.034 16.8331 136.696 16.0928 136.077 15.5423C135.458 14.9918 134.688 14.7166 133.769 14.7166Z" fill="#30424F"/>
<path opacity="0.6" d="M143.779 26.22V12.097H146.988L147.326 14.7451C147.832 13.8339 148.518 13.1125 149.38 12.5811C150.263 12.0306 151.294 11.7554 152.476 11.7554V15.5993H151.463C150.675 15.5993 149.972 15.7227 149.353 15.9695C148.733 16.2162 148.245 16.6433 147.889 17.2507C147.551 17.8582 147.382 18.7029 147.382 19.7849V26.22H143.779Z" fill="#30424F"/>
<path opacity="0.6" d="M30.3337 8.1595L11.4503 27.5102C11.3287 27.6349 11.1163 27.5478 11.1185 27.3742L11.2405 17.8714C11.2414 17.8012 11.2809 17.737 11.3434 17.7042L30.1048 7.8564C30.2993 7.75437 30.4868 8.00271 30.3337 8.1595Z" fill="#414347" fill-opacity="0.8"/>
<path opacity="0.6" d="M31.2425 6.61084L30.9931 6.96179L9.54894 18.3377L1.71971 13.2413C1.53703 13.1168 1.58676 12.8324 1.80844 12.7919L31.2425 6.61084Z" fill="#30424F"/>
<path opacity="0.6" fill-rule="evenodd" clip-rule="evenodd" d="M31.5647 6.39979C31.6521 6.5316 31.6493 6.70311 31.5575 6.83202L31.3081 7.18297C31.2733 7.23181 31.2276 7.27191 31.1745 7.30008L9.73047 18.676C9.60588 18.7421 9.4549 18.7353 9.33678 18.6584L1.50754 13.562C1.50527 13.5606 1.50302 13.5591 1.50078 13.5575C1.06259 13.259 1.14497 12.5277 1.73218 12.4155L31.1622 6.23537C31.3176 6.20272 31.4774 6.26796 31.5647 6.39979ZM2.20714 13.1L9.56864 17.892L29.3436 7.40153L2.20714 13.1Z" fill="#30424F"/>
<path opacity="0.6" fill-rule="evenodd" clip-rule="evenodd" d="M31.6072 6.73592C31.6699 6.55634 31.5908 6.35824 31.4212 6.27022C31.2516 6.18219 31.0426 6.23079 30.93 6.38446L30.7328 6.65361L9.25532 18.2673C9.10774 18.347 9.02905 18.5124 9.06061 18.6762L10.722 27.3063C10.7544 27.4743 10.8946 27.6007 11.066 27.6164C11.2374 27.632 11.3985 27.5332 11.4611 27.3739L14.0113 20.8904L31.268 7.51971C31.3267 7.4742 31.3709 7.41281 31.3953 7.3429L31.6072 6.73592Z" fill="url(#paint0_linear_1_258)"/>
<path opacity="0.6" d="M31.242 6.61035L24.7881 27.1212C24.7381 27.2732 24.5504 27.3408 24.4125 27.2564L16.0194 22.0982L14.2365 20.9057L30.7102 7.30465C30.9153 7.13542 31.0827 6.92588 31.2022 6.68923L31.242 6.61035Z" fill="#30424F"/>
<path opacity="0.6" fill-rule="evenodd" clip-rule="evenodd" d="M31.3871 6.25455C31.5736 6.32939 31.6711 6.53397 31.6111 6.72473L25.1572 27.2355L25.1557 27.2402C25.0273 27.631 24.5584 27.7961 24.2103 27.5829L15.8167 22.4243C15.8125 22.4217 15.8083 22.419 15.8042 22.4163L14.0212 21.2238C13.9203 21.1563 13.8574 21.0456 13.8513 20.9249C13.8451 20.8043 13.8965 20.6877 13.9901 20.6105L30.4638 7.00954C30.6278 6.87416 30.7618 6.70653 30.8573 6.51721L30.8972 6.43833C30.9874 6.25967 31.2005 6.1797 31.3871 6.25455ZM30.3752 8.08048L14.8803 20.8733L16.2295 21.7757L24.4719 26.8414L30.3752 8.08048Z" fill="#30424F"/>
</g>
<defs>
<linearGradient id="paint0_linear_1_258" x1="24.5455" y1="2.98029" x2="11.951" y2="30.967" gradientUnits="userSpaceOnUse">
<stop offset="0.0001" stop-color="#464951"/>
<stop offset="1" stop-color="#767982"/>
</linearGradient>
</defs>
</svg>
