<svg width="147" height="31" viewBox="0 0 147 31" fill="none" xmlns="http://www.w3.org/2000/svg">
<path d="M23.1693 9.17948V24.9413H27.588V16.6793C27.588 15.0736 27.8576 13.9253 28.3971 13.2343C28.9365 12.5229 29.8077 12.1672 31.011 12.1672C32.069 12.1672 32.8055 12.4924 33.2203 13.1428C33.6352 13.7729 33.8426 14.7383 33.8426 16.0391V24.9413H38.2612V15.2464C38.2612 14.2708 38.168 13.3867 37.9812 12.594C37.8152 11.781 37.5145 11.1002 37.0788 10.5514C36.6433 9.98231 36.0416 9.54532 35.274 9.24044C34.5273 8.91524 33.5625 8.75265 32.38 8.75265C31.4465 8.75265 30.5338 8.96605 29.6417 9.39288C28.7497 9.79938 28.0235 10.4599 27.4636 11.3745H27.3701V9.17948H23.1693Z" fill="#0E0E0E"/>
<path d="M41.4283 14.0269C41.4904 13.0107 41.7499 12.1672 42.2063 11.4965C42.6626 10.8258 43.2434 10.2872 43.9487 9.88067C44.6542 9.47419 45.4424 9.18963 46.3136 9.02703C47.2057 8.84411 48.0978 8.75265 48.9899 8.75265C49.799 8.75265 50.6184 8.81363 51.4481 8.93557C52.2781 9.03721 53.0351 9.25061 53.7198 9.5758C54.4044 9.901 54.9643 10.3583 55.4001 10.9477C55.8358 11.5168 56.0535 12.279 56.0535 13.2343V21.4353C56.0535 22.1467 56.095 22.8275 56.178 23.4779C56.261 24.1284 56.4063 24.6161 56.6137 24.9413H52.1327C52.0498 24.6973 51.9771 24.4536 51.915 24.2096C51.8735 23.9455 51.8423 23.6812 51.8215 23.4169C51.1162 24.1284 50.2865 24.6263 49.3321 24.9107C48.3779 25.1954 47.4028 25.3376 46.4072 25.3376C45.6395 25.3376 44.9237 25.2461 44.26 25.0631C43.5962 24.8802 43.0154 24.5958 42.5173 24.2096C42.0195 23.8234 41.6255 23.3357 41.3348 22.7462C41.0653 22.1568 40.9303 21.4556 40.9303 20.6426C40.9303 19.7483 41.0859 19.0167 41.3972 18.4476C41.7291 17.8581 42.1439 17.3907 42.6418 17.0451C43.1604 16.6996 43.7413 16.4456 44.3844 16.283C45.0482 16.1 45.7122 15.9578 46.376 15.8561C47.0398 15.7545 47.6932 15.6732 48.3364 15.6123C48.9795 15.5513 49.55 15.4598 50.0479 15.3379C50.5457 15.2159 50.9399 15.0432 51.2303 14.8196C51.5208 14.5757 51.6555 14.2302 51.6349 13.783C51.6349 13.3156 51.5519 12.9497 51.386 12.6855C51.2407 12.4009 51.0332 12.1875 50.7634 12.0453C50.5145 11.8827 50.2138 11.781 49.8611 11.7404C49.5292 11.6794 49.1661 11.6489 48.7721 11.6489C47.9007 11.6489 47.216 11.8318 46.7182 12.1977C46.2204 12.5635 45.9299 13.1733 45.847 14.0269H41.4283ZM51.6349 17.2281C51.4481 17.3907 51.2095 17.5228 50.9191 17.6244C50.6495 17.7057 50.3486 17.7768 50.0167 17.8378C49.7057 17.8988 49.3735 17.9496 49.021 17.9902C48.6683 18.0309 48.3155 18.0817 47.963 18.1427C47.6311 18.2036 47.2992 18.285 46.9671 18.3866C46.6561 18.4882 46.376 18.6305 46.1271 18.8134C45.8988 18.976 45.7122 19.1894 45.5669 19.4536C45.4218 19.7178 45.3491 20.0532 45.3491 20.4597C45.3491 20.8459 45.4218 21.1711 45.5669 21.4353C45.7122 21.6995 45.9091 21.9129 46.1582 22.0755C46.4072 22.2178 46.6976 22.3194 47.0295 22.3804C47.3613 22.4414 47.7035 22.4719 48.0563 22.4719C48.9275 22.4719 49.6018 22.3296 50.079 22.045C50.556 21.7605 50.9088 21.4251 51.1371 21.039C51.3651 20.6325 51.4999 20.226 51.5416 19.8195C51.6037 19.413 51.6349 19.0878 51.6349 18.8439V17.2281Z" fill="#0E0E0E"/>
<path d="M59.6077 3.1735V24.9413H64.0265V3.1735H59.6077Z" fill="#0E0E0E"/>
<path d="M71.4267 17.0756C71.4267 16.4456 71.4888 15.8257 71.6132 15.2159C71.7377 14.6062 71.9454 14.0676 72.2358 13.6001C72.5468 13.1326 72.9513 12.7566 73.4492 12.4721C73.9472 12.1672 74.5695 12.0148 75.3163 12.0148C76.063 12.0148 76.6856 12.1672 77.1834 12.4721C77.7021 12.7566 78.1066 13.1326 78.397 13.6001C78.7081 14.0676 78.9261 14.6062 79.0505 15.2159C79.175 15.8257 79.2371 16.4456 79.2371 17.0756C79.2371 17.7057 79.175 18.3256 79.0505 18.9353C78.9261 19.5248 78.7081 20.0634 78.397 20.5512C78.1066 21.0186 77.7021 21.3946 77.1834 21.6792C76.6856 21.9637 76.063 22.106 75.3163 22.106C74.5695 22.106 73.9472 21.9637 73.4492 21.6792C72.9513 21.3946 72.5468 21.0186 72.2358 20.5512C71.9454 20.0634 71.7377 19.5248 71.6132 18.9353C71.4888 18.3256 71.4267 17.7057 71.4267 17.0756ZM67.008 17.0756C67.008 18.3358 67.2049 19.474 67.5991 20.4902C67.9934 21.5064 68.5533 22.3804 69.2794 23.1121C70.0056 23.8234 70.8768 24.3722 71.8933 24.7583C72.9098 25.1445 74.0508 25.3376 75.3163 25.3376C76.5817 25.3376 77.7227 25.1445 78.7392 24.7583C79.7764 24.3722 80.6582 23.8234 81.3843 23.1121C82.1104 22.3804 82.6704 21.5064 83.0646 20.4902C83.4588 19.474 83.656 18.3358 83.656 17.0756C83.656 15.8155 83.4588 14.6773 83.0646 13.6611C82.6704 12.6245 82.1104 11.7506 81.3843 11.0392C80.6582 10.3075 79.7764 9.74858 78.7392 9.3624C77.7227 8.9559 76.5817 8.75265 75.3163 8.75265C74.0508 8.75265 72.9098 8.9559 71.8933 9.3624C70.8768 9.74858 70.0056 10.3075 69.2794 11.0392C68.5533 11.7506 67.9934 12.6245 67.5991 13.6611C67.2049 14.6773 67.008 15.8155 67.008 17.0756Z" fill="#0E0E0E"/>
<path d="M94.0282 21.2219C93.3436 21.2219 92.7731 21.0796 92.3167 20.7951C91.8604 20.5105 91.487 20.1447 91.1966 19.6975C90.9268 19.2504 90.7297 18.7524 90.6052 18.2036C90.5016 17.6346 90.4496 17.0655 90.4496 16.4964C90.4496 15.907 90.512 15.348 90.6364 14.8196C90.7817 14.2708 90.9995 13.7932 91.2899 13.3867C91.6011 12.9599 91.9745 12.6245 92.41 12.3806C92.8666 12.1367 93.4059 12.0148 94.0282 12.0148C94.7543 12.0148 95.356 12.1469 95.833 12.4111C96.3102 12.6753 96.6939 13.031 96.9845 13.4782C97.2749 13.9253 97.4823 14.4436 97.6068 15.033C97.7313 15.6021 97.7934 16.2118 97.7934 16.8622C97.7934 17.4313 97.7104 17.9801 97.5444 18.5085C97.3994 19.0167 97.1711 19.474 96.8598 19.8804C96.5488 20.2869 96.1545 20.6121 95.6776 20.856C95.2004 21.0999 94.6505 21.2219 94.0282 21.2219ZM101.994 23.9353V9.17948H97.7934V11.2831H97.7313C97.1919 10.3685 96.5176 9.71807 95.7085 9.3319C94.9203 8.94575 93.997 8.75265 92.939 8.75265C91.8189 8.75265 90.8232 8.96605 89.9518 9.39288C89.1012 9.81971 88.3856 10.399 87.8048 11.1307C87.2238 11.842 86.7777 12.6753 86.4667 13.6306C86.1763 14.5655 86.031 15.5411 86.031 16.5574C86.031 17.6346 86.1554 18.661 86.4044 19.6366C86.6741 20.5918 87.089 21.4353 87.6492 22.167C88.2091 22.8784 88.9249 23.4474 89.7961 23.8743C90.6676 24.2808 91.7047 24.4841 92.9081 24.4841C93.8831 24.4841 94.8061 24.291 95.6776 23.9048C96.5694 23.4983 97.254 22.8784 97.7313 22.045H97.7934V24.1182C97.8142 25.2361 97.5341 26.1607 96.9533 26.8924C96.3932 27.6241 95.4908 27.9899 94.2459 27.9899C93.4577 27.9899 92.7628 27.8274 92.1611 27.5022C91.5597 27.1974 91.1551 26.6385 90.9477 25.8254H86.56C86.6223 26.7196 86.8713 27.4819 87.3067 28.112C87.7633 28.7623 88.3233 29.2907 88.9873 29.6973C89.6717 30.1038 90.4187 30.3985 91.2275 30.5814C92.0575 30.7847 92.8666 30.8864 93.6548 30.8864C95.5011 30.8864 96.974 30.6424 98.0735 30.1547C99.173 29.6668 100.013 29.0671 100.594 28.3558C101.175 27.6648 101.548 26.9127 101.714 26.0999C101.901 25.2868 101.994 24.5653 101.994 23.9353Z" fill="#0E0E0E"/>
<path d="M120.644 24.9413V9.17948H116.225V17.4415C116.225 19.0471 115.956 20.2057 115.416 20.917C114.877 21.6081 114.006 21.9536 112.802 21.9536C111.744 21.9536 111.008 21.6385 110.593 21.0085C110.178 20.3581 109.971 19.3825 109.971 18.0817V9.17948H105.552V18.8744C105.552 19.85 105.635 20.7443 105.801 21.5572C105.987 22.3499 106.299 23.0308 106.734 23.5999C107.17 24.1485 107.761 24.5754 108.508 24.8802C109.276 25.1852 110.251 25.3376 111.433 25.3376C112.367 25.3376 113.279 25.1344 114.172 24.7278C115.064 24.3215 115.79 23.6609 116.35 22.7462H116.443V24.9413H120.644Z" fill="#0E0E0E"/>
<path d="M134.827 15.3684H127.638C127.659 15.0635 127.721 14.718 127.825 14.3318C127.95 13.9456 128.147 13.5798 128.416 13.2343C128.707 12.8887 129.08 12.6042 129.536 12.3806C130.014 12.1367 130.605 12.0148 131.31 12.0148C132.389 12.0148 133.188 12.2993 133.706 12.8684C134.246 13.4375 134.619 14.2708 134.827 15.3684ZM127.638 18.1122H139.245C139.328 16.8927 139.225 15.724 138.934 14.6062C138.644 13.4883 138.167 12.4924 137.503 11.6184C136.86 10.7445 136.03 10.0534 135.013 9.54532C133.997 9.01688 132.804 8.75265 131.435 8.75265C130.211 8.75265 129.09 8.96605 128.074 9.39288C127.078 9.81971 126.217 10.4091 125.491 11.1611C124.765 11.8928 124.205 12.7668 123.811 13.783C123.417 14.7993 123.22 15.8968 123.22 17.0756C123.22 18.2951 123.406 19.413 123.78 20.4292C124.174 21.4454 124.724 22.3194 125.429 23.0511C126.134 23.7829 126.995 24.3518 128.012 24.7583C129.028 25.1445 130.169 25.3376 131.435 25.3376C133.26 25.3376 134.816 24.9311 136.102 24.1182C137.389 23.3052 138.343 21.9536 138.965 20.0634H135.075C134.93 20.5512 134.536 21.0186 133.893 21.4658C133.25 21.8926 132.482 22.106 131.59 22.106C130.346 22.106 129.391 21.791 128.728 21.1609C128.064 20.5308 127.701 19.5146 127.638 18.1122Z" fill="#0E0E0E"/>
<path fill-rule="evenodd" clip-rule="evenodd" d="M4.61851 16.3947C4.14156 16.7981 4.02471 16.8795 3.62593 16.8795V20.2838C5.32224 20.2838 6.26093 19.4895 6.84312 18.9968C6.85003 18.991 6.85687 18.9852 6.86365 18.9795C7.3406 18.5761 7.45746 18.4947 7.85623 18.4947C8.255 18.4947 8.37185 18.5761 8.8488 18.9795C8.85559 18.9852 8.86242 18.991 8.8693 18.9968C9.45152 19.4895 10.3902 20.2838 12.0865 20.2838C13.7828 20.2838 14.7215 19.4895 15.3037 18.9968L15.3242 18.9795C15.8012 18.5761 15.918 18.4947 16.3168 18.4947C16.7156 18.4947 16.8325 18.5761 17.3094 18.9795L17.3299 18.9968C17.9121 19.4895 18.8508 20.2838 20.5471 20.2838C22.2434 20.2838 23.1821 19.4895 23.7643 18.9968L23.7848 18.9795C24.2617 18.5761 24.3787 18.4947 24.7775 18.4947V15.0904C23.0811 15.0904 22.1424 15.8847 21.5602 16.3773L21.5397 16.3947C21.0627 16.7981 20.9459 16.8795 20.5471 16.8795C20.1484 16.8795 20.0315 16.7981 19.5545 16.3947L19.534 16.3773C18.9518 15.8847 18.0131 15.0904 16.3168 15.0904C14.6205 15.0904 13.6818 15.8847 13.0996 16.3773C13.0927 16.3832 13.0859 16.389 13.0791 16.3947C12.6021 16.7981 12.4853 16.8795 12.0865 16.8795C11.6877 16.8795 11.5709 16.7981 11.0939 16.3947C11.0872 16.389 11.0803 16.3832 11.0734 16.3773C10.4912 15.8847 9.55253 15.0904 7.85623 15.0904C6.15992 15.0904 5.22123 15.8847 4.63901 16.3773C4.63213 16.3832 4.62529 16.389 4.61851 16.3947Z" fill="#0E0E0E"/>
<path d="M10.8223 8.45334L7.93013 16.4578L6.6551 20.0322L4.91359 24.8899H0L8.39663 3.07634H13.4035L21.7068 24.8899H16.6378L14.9584 20.0322L13.6834 16.4578L10.8845 8.45334H10.8223Z" fill="#0E0E0E"/>
<path d="M140.456 2.59054C139.673 2.59054 139.006 2.87034 138.454 3.43C137.911 3.97747 137.64 4.62681 137.64 5.37807C137.64 6.15669 137.916 6.81822 138.468 7.36267C139.016 7.90708 139.679 8.17929 140.456 8.17929C141.229 8.17929 141.89 7.90557 142.439 7.3581C142.988 6.80758 143.262 6.14758 143.262 5.37807C143.262 4.62986 142.989 3.98049 142.444 3.43C141.892 2.87034 141.229 2.59054 140.456 2.59054ZM143.863 5.37807C143.863 6.33311 143.523 7.13757 142.841 7.79151C142.179 8.42414 141.384 8.74046 140.456 8.74046C139.497 8.74046 138.69 8.41655 138.033 7.76869C137.377 7.12086 137.048 6.32398 137.048 5.37807C137.048 4.39566 137.403 3.57901 138.112 2.92813C138.778 2.31984 139.559 2.01568 140.456 2.01568C141.396 2.01568 142.199 2.34417 142.865 3.00113C143.53 3.65809 143.863 4.45042 143.863 5.37807ZM142.176 5.94379C142.083 6.47301 141.873 6.84409 141.547 7.05697C141.223 7.26685 140.887 7.37178 140.539 7.37178C140.021 7.37178 139.573 7.18928 139.194 6.82431C138.818 6.45933 138.63 5.98028 138.63 5.38718C138.63 4.83363 138.792 4.3622 139.115 3.9729C139.442 3.58358 139.889 3.38892 140.456 3.38892C140.816 3.38892 141.129 3.46192 141.394 3.6079C141.826 3.84516 142.094 4.26032 142.199 4.85342L141.33 4.83972C141.277 4.56599 141.166 4.38198 140.997 4.2877C140.855 4.19948 140.699 4.1554 140.53 4.1554C140.274 4.1554 140.064 4.26032 139.901 4.47018C139.738 4.677 139.656 4.99029 139.656 5.41C139.656 5.8267 139.745 6.12931 139.924 6.31789C140.106 6.50647 140.323 6.60075 140.576 6.60075C140.807 6.60075 140.981 6.5384 141.098 6.41371C141.219 6.289 141.296 6.13237 141.33 5.94379H142.176Z" fill="black"/>
</svg>
