<svg width="244" height="48" viewBox="0 0 244 48" fill="none" xmlns="http://www.w3.org/2000/svg">
<g clip-path="url(#clip0_1_343)">
<path d="M39.2351 10.4973V37.6067H46.7176V23.3966C46.7176 20.635 47.1745 18.6599 48.0879 17.4713C49.0014 16.2478 50.4765 15.636 52.5142 15.636C54.3057 15.636 55.553 16.1954 56.2556 17.314C56.9583 18.3977 57.3096 20.0582 57.3096 22.2955V37.6067H64.7921V20.9321C64.7921 19.2542 64.6341 17.7335 64.3178 16.3702C64.0367 14.9718 63.5274 13.8008 62.7898 12.8569C62.0519 11.8781 61.0332 11.1265 59.7335 10.6022C58.4688 10.0428 56.8352 9.76318 54.8329 9.76318C53.2518 9.76318 51.7063 10.1303 50.1955 10.8643C48.685 11.5635 47.4556 12.6996 46.5068 14.2727H46.3488V10.4973H39.2351Z" fill="white"/>
<path d="M70.1549 18.8347C70.2605 17.0868 70.6995 15.636 71.4724 14.4825C72.2453 13.3288 73.229 12.4025 74.4235 11.7033C75.6176 11.0042 76.9526 10.5148 78.4282 10.2351C79.9387 9.9205 81.4492 9.76318 82.96 9.76318C84.33 9.76318 85.7178 9.86808 87.1227 10.0778C88.528 10.2526 89.8102 10.6197 90.9693 11.179C92.1289 11.7383 93.0773 12.5248 93.8152 13.5386C94.5528 14.5174 94.9216 15.8283 94.9216 17.4713V31.5767C94.9216 32.8002 94.9919 33.9712 95.1324 35.09C95.2729 36.2087 95.519 37.0475 95.8703 37.6066H88.2822C88.1417 37.1873 88.0186 36.7679 87.9131 36.3485C87.8428 35.8941 87.7904 35.4393 87.7551 34.985C86.5606 36.2087 85.1556 37.065 83.5396 37.5544C81.9235 38.0439 80.2725 38.2885 78.5862 38.2885C77.2865 38.2885 76.0745 38.1311 74.9503 37.8165C73.8261 37.5019 72.8424 37.0124 71.9992 36.3485C71.1564 35.6842 70.4887 34.8452 69.9969 33.8314C69.5403 32.8177 69.3121 31.6116 69.3121 30.2133C69.3121 28.6752 69.5753 27.4167 70.1025 26.4379C70.6646 25.4241 71.3669 24.6201 72.21 24.0258C73.0885 23.4316 74.0722 22.9946 75.1611 22.7149C76.2853 22.4003 77.4095 22.1556 78.5334 21.9808C79.6576 21.806 80.7644 21.6662 81.8533 21.5613C82.9422 21.4565 83.9084 21.2992 84.7515 21.0894C85.5947 20.8797 86.262 20.5825 86.7539 20.198C87.2457 19.7785 87.474 19.1843 87.439 18.4152C87.439 17.6111 87.2985 16.9819 87.0175 16.5275C86.7714 16.0381 86.42 15.671 85.9635 15.4263C85.5419 15.1466 85.0326 14.9718 84.4355 14.902C83.8734 14.7971 83.2585 14.7446 82.5912 14.7446C81.1157 14.7446 79.9561 15.0593 79.1133 15.6885C78.2702 16.3177 77.7783 17.3665 77.6378 18.8347H70.1549ZM87.439 24.3405C87.1227 24.6201 86.7189 24.8473 86.2271 25.0221C85.7702 25.162 85.2609 25.2843 84.6988 25.3892C84.172 25.494 83.6099 25.5815 83.0124 25.6514C82.4154 25.7213 81.8183 25.8087 81.2209 25.9135C80.6588 26.0184 80.0967 26.1583 79.5346 26.333C79.0078 26.5078 78.5334 26.7525 78.1118 27.0671C77.7255 27.3468 77.4095 27.7139 77.1634 28.1683C76.9177 28.6228 76.7946 29.1995 76.7946 29.8987C76.7946 30.5629 76.9177 31.1222 77.1634 31.5767C77.4095 32.0311 77.743 32.3982 78.1646 32.6778C78.5862 32.9225 79.078 33.0973 79.6401 33.2022C80.2022 33.307 80.7818 33.3595 81.3789 33.3595C82.8544 33.3595 83.9961 33.1148 84.8043 32.6254C85.6122 32.136 86.2093 31.5592 86.5959 30.895C86.9822 30.1958 87.2108 29.4967 87.281 28.7975C87.3863 28.0984 87.439 27.5391 87.439 27.1196V24.3405Z" fill="white"/>
<path d="M100.94 0.166992V37.6063H108.423V0.166992H100.94Z" fill="white"/>
<path d="M120.954 24.0783C120.954 22.9946 121.06 21.9284 121.271 20.8797C121.482 19.831 121.833 18.9046 122.325 18.1005C122.852 17.2965 123.537 16.6498 124.38 16.1604C125.223 15.636 126.277 15.3739 127.541 15.3739C128.806 15.3739 129.86 15.636 130.703 16.1604C131.581 16.6498 132.267 17.2965 132.758 18.1005C133.285 18.9046 133.654 19.831 133.865 20.8797C134.076 21.9284 134.181 22.9946 134.181 24.0783C134.181 25.162 134.076 26.2282 133.865 27.2769C133.654 28.2907 133.285 29.217 132.758 30.056C132.267 30.86 131.581 31.5067 130.703 31.9962C129.86 32.4855 128.806 32.7303 127.541 32.7303C126.277 32.7303 125.223 32.4855 124.38 31.9962C123.537 31.5067 122.852 30.86 122.325 30.056C121.833 29.217 121.482 28.2907 121.271 27.2769C121.06 26.2282 120.954 25.162 120.954 24.0783ZM113.472 24.0783C113.472 26.2456 113.806 28.2033 114.473 29.9511C115.141 31.699 116.089 33.2022 117.319 34.4606C118.548 35.6842 120.024 36.6281 121.745 37.2924C123.466 37.9563 125.399 38.2885 127.541 38.2885C129.684 38.2885 131.617 37.9563 133.338 37.2924C135.094 36.6281 136.588 35.6842 137.817 34.4606C139.046 33.2022 139.995 31.699 140.662 29.9511C141.33 28.2033 141.664 26.2456 141.664 24.0783C141.664 21.9109 141.33 19.9533 140.662 18.2054C139.995 16.4226 139.046 14.9194 137.817 13.6959C136.588 12.4374 135.094 11.4761 133.338 10.8119C131.617 10.1128 129.684 9.76318 127.541 9.76318C125.399 9.76318 123.466 10.1128 121.745 10.8119C120.024 11.4761 118.548 12.4374 117.319 13.6959C116.089 14.9194 115.141 16.4226 114.473 18.2054C113.806 19.9533 113.472 21.9109 113.472 24.0783Z" fill="white"/>
<path d="M159.229 31.2096C158.069 31.2096 157.103 30.9649 156.33 30.4755C155.557 29.9861 154.925 29.3568 154.433 28.5878C153.977 27.8187 153.643 26.9623 153.432 26.0184C153.256 25.0396 153.168 24.0608 153.168 23.082C153.168 22.0682 153.274 21.1069 153.485 20.198C153.73 19.2541 154.099 18.4326 154.591 17.7335C155.118 16.9994 155.751 16.4226 156.488 16.0031C157.261 15.5836 158.175 15.3739 159.229 15.3739C160.458 15.3739 161.477 15.6011 162.285 16.0555C163.093 16.51 163.743 17.1218 164.234 17.8908C164.726 18.6599 165.078 19.5513 165.288 20.565C165.499 21.5439 165.604 22.5926 165.604 23.7112C165.604 24.69 165.464 25.6339 165.183 26.5428C164.937 27.4167 164.55 28.2033 164.024 28.9024C163.497 29.6015 162.829 30.1609 162.021 30.5804C161.213 30.9998 160.282 31.2096 159.229 31.2096ZM172.718 35.8765V10.4973H165.604V14.1154H165.499C164.586 12.5423 163.444 11.4237 162.074 10.7595C160.739 10.0953 159.176 9.76318 157.384 9.76318C155.487 9.76318 153.801 10.1303 152.325 10.8643C150.885 11.5985 149.673 12.5948 148.689 13.8532C147.706 15.0767 146.951 16.51 146.423 18.153C145.932 19.761 145.686 21.439 145.686 23.1869C145.686 25.0396 145.897 26.805 146.318 28.4829C146.775 30.1259 147.477 31.5767 148.426 32.8351C149.374 34.0586 150.586 35.0374 152.062 35.7714C153.537 36.4708 155.294 36.8204 157.331 36.8204C158.982 36.8204 160.546 36.4883 162.021 35.824C163.532 35.125 164.691 34.0586 165.499 32.6254H165.604V36.1912C165.64 38.1136 165.165 39.7043 164.182 40.9628C163.233 42.2213 161.705 42.8506 159.597 42.8506C158.262 42.8506 157.085 42.5706 156.067 42.0114C155.048 41.4869 154.363 40.5259 154.012 39.1276H146.581C146.687 40.6657 147.109 41.9764 147.846 43.0601C148.619 44.1788 149.568 45.0876 150.692 45.787C151.851 46.4859 153.116 46.9929 154.486 47.3075C155.891 47.6572 157.261 47.832 158.596 47.832C161.723 47.832 164.217 47.4123 166.079 46.5735C167.941 45.7344 169.363 44.7033 170.347 43.4798C171.331 42.291 171.963 40.9978 172.244 39.5995C172.56 38.2012 172.718 36.9602 172.718 35.8765Z" fill="white"/>
<path d="M204.3 37.6064V10.4971H196.817V24.7073C196.817 27.4689 196.361 29.4615 195.447 30.685C194.534 31.8736 193.058 32.4678 191.021 32.4678C189.229 32.4678 187.982 31.926 187.279 30.8423C186.577 29.7237 186.225 28.0457 186.225 25.8084V10.4971H178.743V27.1718C178.743 28.8497 178.883 30.3879 179.164 31.7862C179.481 33.1495 180.007 34.3206 180.745 35.2993C181.483 36.2431 182.484 36.9775 183.749 37.5017C185.048 38.0262 186.7 38.2882 188.702 38.2882C190.283 38.2882 191.829 37.9386 193.339 37.2396C194.85 36.5403 196.08 35.4044 197.028 33.8312H197.186V37.6064H204.3Z" fill="white"/>
<path d="M228.317 21.1418H216.144C216.179 20.6175 216.285 20.0232 216.461 19.359C216.671 18.6948 217.005 18.0656 217.462 17.4713C217.954 16.877 218.586 16.3876 219.358 16.0031C220.167 15.5836 221.168 15.3739 222.362 15.3739C224.189 15.3739 225.542 15.8633 226.42 16.8421C227.333 17.8209 227.966 19.2541 228.317 21.1418ZM216.144 25.8611H235.799C235.94 23.7637 235.764 21.7536 235.272 19.831C234.781 17.9083 233.973 16.1954 232.848 14.6922C231.759 13.189 230.354 12.0005 228.633 11.1265C226.912 10.2176 224.891 9.76318 222.573 9.76318C220.501 9.76318 218.603 10.1303 216.882 10.8643C215.196 11.5985 213.738 12.6122 212.508 13.9057C211.279 15.1641 210.33 16.6673 209.663 18.4152C208.995 20.163 208.662 22.0508 208.662 24.0783C208.662 26.1757 208.978 28.0984 209.61 29.8463C210.278 31.5941 211.209 33.0973 212.403 34.3558C213.597 35.6141 215.055 36.593 216.777 37.2924C218.498 37.9563 220.43 38.2885 222.573 38.2885C225.664 38.2885 228.299 37.5895 230.477 36.1912C232.655 34.7927 234.271 32.4681 235.325 29.217H228.738C228.492 30.056 227.825 30.86 226.736 31.6291C225.647 32.3632 224.347 32.7303 222.836 32.7303C220.729 32.7303 219.113 32.1884 217.989 31.1047C216.864 30.021 216.25 28.2732 216.144 25.8611Z" fill="white"/>
<path fill-rule="evenodd" clip-rule="evenodd" d="M7.82111 22.9069C7.01343 23.6008 6.81557 23.7407 6.14027 23.7407V29.596C9.01279 29.596 10.6024 28.2298 11.5883 27.3825C11.6 27.3724 11.6116 27.3625 11.6231 27.3526C12.4307 26.6587 12.6286 26.5189 13.3039 26.5189C13.9792 26.5189 14.1771 26.6587 14.9847 27.3526C14.9962 27.3625 15.0078 27.3724 15.0195 27.3825C16.0054 28.2298 17.595 29.596 20.4675 29.596C23.3401 29.596 24.9297 28.2298 25.9156 27.3825L25.9503 27.3526C26.758 26.6587 26.9559 26.5189 27.6312 26.5189C28.3065 26.5189 28.5043 26.6587 29.312 27.3526L29.3467 27.3825C30.3327 28.2298 31.9223 29.596 34.7948 29.596C37.6672 29.596 39.2571 28.2298 40.2429 27.3825L40.2775 27.3526C41.0853 26.6587 41.2832 26.5189 41.9586 26.5189V20.6636C39.0858 20.6636 37.4963 22.0297 36.5105 22.8771L36.4756 22.9069C35.668 23.6008 35.4702 23.7407 34.7948 23.7407C34.1195 23.7407 33.9216 23.6008 33.1139 22.9069L33.0792 22.8771C32.0933 22.0297 30.5037 20.6636 27.6312 20.6636C24.7586 20.6636 23.169 22.0297 22.1831 22.8771C22.1715 22.8871 22.1599 22.897 22.1484 22.9069C21.3407 23.6008 21.1428 23.7407 20.4675 23.7407C19.7922 23.7407 19.5944 23.6008 18.7867 22.9069C18.7752 22.897 18.7636 22.8871 18.752 22.8771C17.766 22.0297 16.1764 20.6636 13.3039 20.6636C10.4313 20.6636 8.84178 22.0297 7.85586 22.8771C7.84418 22.8871 7.83261 22.897 7.82111 22.9069Z" fill="white"/>
<path d="M18.3266 9.24816L13.429 23.0153L11.2698 29.1633L8.32071 37.5181H0L14.2189 0H22.6976L36.7587 37.5181H28.1746L25.3308 29.1633L23.1716 23.0153L18.432 9.24816H18.3266Z" fill="white"/>
<path d="M238.808 6.23143V5.00165H239.589C239.693 5.00165 239.801 5.00907 239.912 5.024C240.031 5.03889 240.135 5.06871 240.225 5.11345C240.321 5.15069 240.399 5.20661 240.459 5.28113C240.518 5.35566 240.548 5.45628 240.548 5.58297C240.548 5.86621 240.462 6.0451 240.291 6.11963C240.12 6.19415 239.901 6.23143 239.633 6.23143H238.808ZM237.882 4.27495V8.9593H238.808V6.95812H239.388L240.526 8.9593H241.496L240.247 6.91338C240.418 6.89849 240.578 6.86496 240.726 6.81275C240.875 6.76058 241.005 6.68606 241.117 6.58918C241.228 6.49227 241.314 6.3693 241.373 6.22025C241.44 6.06371 241.474 5.87738 241.474 5.66124C241.474 5.15444 241.314 4.79668 240.994 4.58797C240.682 4.37929 240.232 4.27495 239.644 4.27495H237.882ZM236.399 6.62271C236.399 6.14569 236.48 5.7097 236.644 5.31466C236.808 4.9122 237.031 4.56562 237.313 4.27495C237.596 3.98426 237.927 3.75694 238.306 3.59297C238.692 3.42901 239.105 3.34702 239.544 3.34702C239.975 3.34702 240.381 3.42901 240.76 3.59297C241.146 3.75694 241.481 3.98426 241.764 4.27495C242.046 4.56562 242.27 4.9122 242.433 5.31466C242.604 5.7097 242.689 6.14569 242.689 6.62271C242.689 7.0997 242.604 7.53944 242.433 7.94194C242.27 8.34441 242.046 8.6947 241.764 8.99283C241.481 9.28353 241.146 9.51084 240.76 9.67481C240.381 9.83878 239.975 9.92077 239.544 9.92077C239.105 9.92077 238.692 9.83878 238.306 9.67481C237.927 9.51084 237.596 9.28353 237.313 8.99283C237.031 8.6947 236.808 8.34441 236.644 7.94194C236.48 7.53944 236.399 7.0997 236.399 6.62271ZM235.261 6.62271C235.261 7.26367 235.376 7.84132 235.606 8.35558C235.845 8.86985 236.161 9.30959 236.554 9.67481C236.949 10.04 237.403 10.3195 237.915 10.5133C238.436 10.7071 238.979 10.804 239.544 10.804C240.109 10.804 240.648 10.7071 241.161 10.5133C241.682 10.3195 242.139 10.04 242.534 9.67481C242.928 9.30959 243.24 8.86985 243.47 8.35558C243.708 7.84132 243.827 7.26367 243.827 6.62271C243.827 5.98918 243.708 5.41529 243.47 4.90102C243.24 4.38676 242.928 3.95073 242.534 3.59297C242.139 3.22777 241.682 2.94828 241.161 2.75449C240.648 2.55325 240.109 2.45264 239.544 2.45264C238.979 2.45264 238.436 2.55325 237.915 2.75449C237.403 2.94828 236.949 3.22777 236.554 3.59297C236.161 3.95073 235.845 4.38676 235.606 4.90102C235.376 5.41529 235.261 5.98918 235.261 6.62271Z" fill="white"/>
</g>
<defs>
<clipPath id="clip0_1_343">
<rect width="244" height="48" fill="white"/>
</clipPath>
</defs>
</svg>
